<svg xmlns="http://www.w3.org/2000/svg" viewBox="0 0 284.31 68.21"><defs><style>.cls-1{fill:#020203;}.cls-2{isolation:isolate;}</style></defs><g id="Layer_2" data-name="Layer 2"><g id="Layer_1-2" data-name="Layer 1"><path class="cls-1" d="M0,25.53V.29H9.23A7.53,7.53,0,0,1,14.53,2a6.54,6.54,0,0,1,1.91,5.07,6,6,0,0,1-.65,2.79A4.24,4.24,0,0,1,14,11.76c2.52,1.06,3.79,3.11,3.79,6.17a7.15,7.15,0,0,1-2.2,5.62,8.84,8.84,0,0,1-6.13,2ZM4.68,10.1H9a3.31,3.31,0,0,0,2.24-.65,2.69,2.69,0,0,0,.72-2.09,2.65,2.65,0,0,0-.74-2.09,3.49,3.49,0,0,0-2.33-.65H4.68Zm0,11.1H9c2.72,0,4.07-1.13,4.07-3.39S11.68,14.42,9,14.42H4.68Z"/><path class="cls-1" d="M27.76,15.94V.29h4.69V16q0,5.47,4.72,5.48T41.89,16V.29h4.69V15.94c0,3.2-.84,5.64-2.51,7.34a9.23,9.23,0,0,1-6.91,2.54,9.26,9.26,0,0,1-6.9-2.54C28.6,21.58,27.76,19.14,27.76,15.94Z"/><path class="cls-1" d="M59.1,25.53V.29h9.23A7.53,7.53,0,0,1,73.63,2a6.54,6.54,0,0,1,1.91,5.07,6,6,0,0,1-.65,2.79,4.24,4.24,0,0,1-1.84,1.86c2.52,1.06,3.79,3.11,3.79,6.17a7.15,7.15,0,0,1-2.2,5.62,8.84,8.84,0,0,1-6.13,2ZM63.78,10.1h4.29a3.31,3.31,0,0,0,2.24-.65A2.69,2.69,0,0,0,71,7.36a2.65,2.65,0,0,0-.74-2.09A3.49,3.49,0,0,0,68,4.62H63.78Zm0,11.1h4.29c2.72,0,4.07-1.13,4.07-3.39s-1.36-3.39-4.07-3.39H63.78Z"/><path class="cls-1" d="M89.21,25.53V.29h9.23A7.53,7.53,0,0,1,103.74,2a6.54,6.54,0,0,1,1.91,5.07A6,6,0,0,1,105,9.9a4.24,4.24,0,0,1-1.84,1.86c2.52,1.06,3.79,3.11,3.79,6.17a7.15,7.15,0,0,1-2.2,5.62,8.84,8.84,0,0,1-6.13,2ZM93.89,10.1h4.29a3.31,3.31,0,0,0,2.24-.65,2.69,2.69,0,0,0,.72-2.09,2.65,2.65,0,0,0-.74-2.09,3.49,3.49,0,0,0-2.33-.65H93.89Zm0,11.1h4.29c2.72,0,4.07-1.13,4.07-3.39s-1.36-3.39-4.07-3.39H93.89V21.2Z"/><path class="cls-1" d="M117.87,25.53V.29h4.69V21.2h10.71v4.33Z"/><path class="cls-1" d="M143.87,25.53V.29h15.61V4.62H148.55v5.3h8.76v4.33h-8.76v7h11.29v4.33h-16Z"/><path class="cls-1" d="M171.6,25.53V.29h9.2a7.81,7.81,0,0,1,5.66,2,6.91,6.91,0,0,1,2,5.23,7.42,7.42,0,0,1-1.23,4.31,6.3,6.3,0,0,1-3.5,2.47l7,11.29h-5.23l-6.78-10.89h-2.45V25.54H171.6Zm4.69-15.22h4.54c2,0,3-1,3-2.85s-1-2.85-3-2.85h-4.54Z"/><path class="cls-1" d="M200.43,22.43q-3.37-3.39-3.37-9.52t3.37-9.52a12.43,12.43,0,0,1,17.06,0q3.38,3.39,3.37,9.52t-3.37,9.52a12.43,12.43,0,0,1-17.06,0Zm13.66-3.14c1.33-1.47,2-3.59,2-6.38s-.67-4.92-2-6.38a7.1,7.1,0,0,0-10.28,0c-1.33,1.47-2,3.59-2,6.38s.67,4.92,2,6.38a7.1,7.1,0,0,0,10.28,0Z"/><path class="cls-1" d="M232.59,22.43q-3.37-3.39-3.37-9.52t3.37-9.52a12.43,12.43,0,0,1,17.06,0Q253,6.78,253,12.91t-3.37,9.52a12.43,12.43,0,0,1-17.06,0Zm13.67-3.14c1.33-1.47,2-3.59,2-6.38s-.67-4.92-2-6.38a7.1,7.1,0,0,0-10.28,0c-1.33,1.47-2,3.59-2,6.38s.67,4.92,2,6.38a7.1,7.1,0,0,0,10.28,0Z"/><path class="cls-1" d="M261.89,25.53V.29h5.26l6,15.76L279.05.29h5.26V25.53h-4.69V10l-4.83,13.27H271.4L266.57,10V25.53Z"/><g class="cls-2"><path class="cls-1" d="M126.8,52.29h11.67v2.58h-4.24V68.21H131V54.87H126.8Z"/><path class="cls-1" d="M140.46,52.2a2,2,0,1,1,2,1.87A1.87,1.87,0,0,1,140.46,52.2Zm.34,3.38H144V68.21H140.8Z"/><path class="cls-1" d="M147.14,51.34h3.19V68.21h-3.19Z"/><path class="cls-1" d="M153.13,52.2a2,2,0,1,1,2,1.87A1.87,1.87,0,0,1,153.13,52.2Zm.34,3.38h3.2V68.21h-3.2Z"/></g></g></g></svg>