<svg xmlns="http://www.w3.org/2000/svg" xml:space="preserve" style="enable-background:new 0 0 726.5 271.2" viewBox="0 0 726.5 271.2"><path d="M292.6 133.4c-10 0-18.1 8.1-18.1 18.1v.2c.3 4.1-.7 7.4-2.9 9.7-3.4 3.6-8.9 4.4-10.9 4.5h-33.3c-.1 0-7.5-.1-11.7-4.5-2.2-2.3-3.2-5.6-2.9-9.7V86.8c-.3-4.1.7-7.4 2.9-9.7 4.2-4.5 11.6-4.5 11.7-4.5H261.7c5.9.9 11.9 4.6 12.3 13.3v.1c.9 12.6-6.4 15-12 15.3-.9 0-17.4-.1-17.4-.1-10 0-18.1 8.1-18.1 18.1s8.1 18.2 18.1 18.2h15.3c10 0 18.1-8.1 18.1-18.2 0-.4.1-1.5.1-1.8 1.2-12.4 10.9-11.8 14.1-12.3h.2c10 0 18.1-8.1 18.1-18.1S302.4 69 292.4 69h-.2c-2.7 0-13.2-.5-14.2-12.6v-2.2c0-10-8.1-17.8-18.1-17.8h-32.5c-10 0-18.1 8.1-18.1 18-1.6 14.7-13.3 14.6-14.6 14.5h-.2c-10 0-18.1 8.1-18.1 18.1v64.5c0 10 8.1 18.1 18.1 18.1h.2c1.3-.1 13-.2 14.4 14.6.1 8.4 5.8 15.4 13.6 17.4.2 0 .4.1.5.1.3.1.6.1.9.2 1.1.2 2.1.4 3.3.4h32.5c10 0 18.1-8.1 18.1-18 1.4-14.8 13.1-14.7 14.4-14.6h.2c10 0 18.1-8.1 18.1-18.1s-8.1-18.2-18.1-18.2zM536.9 68.5h-.2c-1.3.1-13 .2-14.4-14.6-.1-7.3-4.5-13.6-10.7-16.4 0 0-2.7-1.6-7.2-1.6H472c-10 0-18.1 8.1-18.1 18-1.4 14.8-13.1 14.7-14.4 14.6h-.2c-10 0-18.1 8.1-18.1 18.1v97.2c0 10 8.1 18.1 18.1 18.1s18.1-8.1 18.1-18.1V86.5c-.3-4.1.7-7.4 2.9-9.7 4.2-4.5 11.6-4.5 11.7-4.5h32.2c.1 0 7.5.1 11.7 4.5 2.2 2.3 3.2 5.6 2.9 9.7v65c0 .1-.1 7.5-4.5 11.7-2.3 2.2-5.6 3.2-9.7 2.9h-.2c-10 0-18.1 8.1-18.1 18.1s8.1 18.1 18.1 18.1 18.1-8.1 18.1-18.1v-.2c-.1-1.3-.2-13 14.6-14.4 9.9-.1 18-8.2 18-18.1V86.7c0-10-8.2-18.2-18.2-18.2zM365.7 82.1c-10 0-18.1 8.1-18.1 18.1v84c0 10 8.1 18.1 18.1 18.1s18.1-8.1 18.1-18.1v-84c.1-10-8.1-18.1-18.1-18.1zM708.4 133.8h-.2c-.5 0-13 .6-14.4-14.7v-.2c-.3-9.7-8.4-17.6-18.1-17.6h-32.6c-.8 0-7.6-.3-11.6-4.5-2.2-2.3-2.9-5.6-2.9-9.7v-.4c0-4.1.7-7.4 2.9-9.7 4.2-4.5 11.6-4.5 11.7-4.5h32.3c10 0 18.2-8.1 18.2-18.2V54h.1c-.2-9.8-8.2-17.8-18.1-17.8h-32.5c-10 0-18.1 8.1-18.1 18-1.4 14.8-13.1 14.7-14.4 14.6h-.2c-10 0-18.1 8.1-18.1 18.1s8.1 18.1 18.1 18.1h.2c.5 0 12.9-.6 14.4 14.6.1 9.9 8.2 18 18.1 18h32.5c.5 0 7.5.1 11.7 4.5 2.2 2.3 2.9 5 2.9 9.3v.6c0 4.1-.7 7.5-2.9 9.9-4.1 4.4-11.4 4.6-11.7 4.6h-32.3c-.1 0-7.5-.1-11.7-4.5-2.2-2.3-3.2-5.5-2.9-9.6v-.4c0-10-8.1-18.1-18.1-18.1s-18.1 8.1-18.1 18.1 8.1 18.1 18.1 18.1h.3c1.6 0 12.9-.2 14.3 14.6.1 9.9 8.2 18 18.1 18h32.5c10 0 18.1-8.1 18.1-18.1v-1.3c2-13.3 13-13.2 14.2-13.1h.2c10 0 18.1-8.1 18.1-18.1s-8.1-18.4-18.1-18.3zM365.7 36c-10.1 0-18.2 8.2-18.2 18.2s8.2 18.2 18.2 18.2S384 64.3 384 54.2 375.8 36 365.7 36zM120.8 68.5h-.2c-1.1.1-8.9.1-12.6-7.7 0 0 0-.1-.1-.1-.1-.2-.2-.5-.3-.7 0-.1-.1-.2-.1-.3-.1-.2-.1-.4-.2-.6-.1-.1-.1-.3-.2-.5s-.1-.3-.1-.5c-.1-.2-.1-.4-.2-.7 0-.1-.1-.2-.1-.4-.1-.3-.1-.6-.2-.9v-.2c-.1-.4-.1-.7-.2-1.1 0-.3-.1-.7-.1-1-.1-7.3-4.4-13.6-10.7-16.4 0 0-2.9-1.4-5.6-1.5-.4 0-1.4-.1-1.6-.1H55.8c-10 0-18.1 8.1-18.1 18-1.4 14.8-13.1 14.7-14.4 14.6h-.2C13.1 68.4 5 76.5 5 86.5v65.2c0 10 8.1 18.1 18.1 18.1h.2c1.7 0 12-.2 14.2 12.8v1.8C36 199.5 25.2 198.7 22.9 199h-.2c-10.7.3-18.1 8.1-18.1 18.1s8.1 18.1 18.1 18.1h1.1c3 .1 12.3 1.6 13.5 14.6.1 8.4 5.8 15.4 13.6 17.4.2 0 .4.1.5.1.3.1.6.1.9.2 1.1.2 2.2.4 3.3.4H88c9.9 0 18.1-8.1 18.1-18 1.4-14.8 13.1-14.7 14.4-14.6h.2c10 0 18.1-8.1 18.1-18.1s-8.1-18.1-18.1-18.1-18.1 8.1-18.1 18.1v.2c.3 4.1-.7 7.4-2.9 9.7-3.4 3.6-8.9 4.4-10.9 4.5H55.5c-.1 0-7.5-.1-11.7-4.5-2.2-2.3-2.9-5.6-2.9-9.7v-2.7c.2-3 1.2-5.5 2.9-7.3 3.4-3.6 8.9-4.8 10.9-5H88c10 0 18.1-7.7 18.1-17.6 1.4-14.8 13.1-14.7 14.4-14.6h.2c10 0 18.1-8.1 18.1-18.1V86.7c.1-10-8-18.2-18-18.2zm-21.1 93.3c-4.2 4.5-11.6 4.5-11.7 4.5H55.8c-.1 0-7.5-.1-11.7-4.5-2.2-2.3-3.2-5.6-2.9-9.7V85c0-3.4 1-6.2 2.9-8.2 3.5-3.7 9.2-4.4 11.1-4.5h33.4c1.7.1 7.6.7 11.2 4.5 1.9 2 2.9 4.8 2.9 8.2V152.1c.2 4.1-.8 7.4-3 9.7zM120.9 39.9c10.1 0 18.2-8.2 18.2-18.2S131 3.4 120.9 3.4s-18.2 8.2-18.2 18.2 8.1 18.3 18.2 18.3z"/><path d="M708.3 104.8c10.1 0 18.2-8.2 18.2-18.2s-8.2-18.2-18.2-18.2-18.2 8.2-18.2 18.2 8.2 18.2 18.2 18.2z"/></svg>