<svg xmlns="http://www.w3.org/2000/svg" fill="none" viewBox="0 0 87 20"><path d="M20.22 6.99a9.25 9.25 0 0 0-1.14-2.2l.92-.87a.56.56 0 0 0 0-.83l-2.02-1.9a.65.65 0 0 0-.87 0l-3.15 2.96h-6.9c-.34 0-.62.26-.62.59 0 .32.28.58.62.58h7.16c.16 0 .32-.06.44-.17l2.89-2.71 1.13 1.07-.84.8a.56.56 0 0 0-.06.75A8.15 8.15 0 0 1 19.5 10a7.88 7.88 0 0 1-.83 3.53c-.15.29-.01.64.3.77a.62.62 0 0 0 .82-.28 9.18 9.18 0 0 0 .95-4.02c0-1.03-.18-2.04-.52-3.01ZM31.76 5.52a.28.28 0 0 0-.27-.16h-.97a.28.28 0 0 0-.26.16l-3.75 8.82a.26.26 0 0 0 .03.25c.05.08.14.12.23.12h.9c.12 0 .23-.07.27-.17l.83-2h4.47l.83 2c.04.1.15.17.27.17h.9c.1 0 .18-.04.24-.12a.26.26 0 0 0 .02-.25l-3.74-8.82Zm-2.5 5.8 1.75-4.16 1.74 4.16h-3.49Zm15.51-5.96h-.9a.28.28 0 0 0-.27.17l-3.06 7.34-3.07-7.34a.28.28 0 0 0-.26-.17h-.91c-.1 0-.18.04-.23.11a.25.25 0 0 0-.03.25l3.75 8.82c.04.1.14.17.26.17h.97c.12 0 .22-.07.27-.17l3.74-8.82a.26.26 0 0 0-.02-.25.29.29 0 0 0-.24-.11Zm17.08 5.6a2.7 2.7 0 0 0 2.33-2.76c0-1.67-1.27-2.84-3.07-2.84h-3.42c-.16 0-.29.12-.29.26v8.82c0 .15.13.27.29.27h.78c.16 0 .28-.12.28-.27v-3.38h1.59l2.48 3.53c.05.08.14.12.23.12H64c.1 0 .2-.05.25-.14a.25.25 0 0 0-.01-.28l-2.39-3.33Zm-3.1-1.12V6.58h2.29c1.04 0 1.75.65 1.75 1.62 0 .98-.7 1.64-1.75 1.64h-2.29Zm12.06-4.48h-2.93c-.15 0-.28.12-.28.26v8.82c0 .15.13.27.28.27h2.93c2.84 0 4.9-1.96 4.9-4.67s-2.06-4.68-4.9-4.68Zm0 8.13h-1.86V6.58h1.86c2.43 0 3.52 1.74 3.52 3.46 0 2.06-1.42 3.45-3.52 3.45Zm-20-7.97a.28.28 0 0 0-.26-.16h-.97a.28.28 0 0 0-.26.16l-3.75 8.82a.26.26 0 0 0 .03.25c.05.08.14.12.23.12h.9c.12 0 .23-.07.27-.17l.84-2h4.46l.83 2c.04.1.15.17.27.17h.9c.1 0 .18-.04.24-.12a.25.25 0 0 0 .02-.25l-3.74-8.82Zm-2.49 5.8 1.75-4.16 1.74 4.16h-3.49Zm37.91 3.03-3.75-8.83a.29.29 0 0 0-.26-.16h-.97a.28.28 0 0 0-.27.16l-3.75 8.83a.26.26 0 0 0 .03.24c.06.08.14.12.24.12h.9c.12 0 .22-.07.27-.17l.83-2h4.46l.84 2c.04.1.15.17.26.17h.9c.1 0 .19-.04.24-.12a.26.26 0 0 0 .03-.24ZM80 11.32l1.75-4.16 1.74 4.16h-3.5Z" fill="#46AAB4"/><path d="M4.21 6.73a6.5 6.5 0 0 0 .22 6.96.65.65 0 0 0 .86.18.56.56 0 0 0 .2-.8 5.42 5.42 0 0 1 .02-6.11.56.56 0 0 0-.08-.73L2.55 3.51l1.13-1.07.85.8c.22.2.56.22.8.05a9.45 9.45 0 0 1 8.99-.84c.32.14.68.01.83-.28a.57.57 0 0 0-.3-.78A10.54 10.54 0 0 0 7.38 1c-.82.26-1.61.62-2.34 1.07l-.92-.86a.67.67 0 0 0-.87 0L1.23 3.1a.56.56 0 0 0 0 .82l2.98 2.81Z" fill="#46AAB4"/><path d="M14.18 15.84c.34 0 .62-.26.62-.58 0-.32-.28-.58-.62-.58H7.03a.64.64 0 0 0-.44.17l-2.9 2.71-1.13-1.07.85-.8c.21-.2.24-.52.06-.75A8.18 8.18 0 0 1 1.75 10a7.88 7.88 0 0 1 .82-3.53.57.57 0 0 0-.3-.78.64.64 0 0 0-.82.29A9.15 9.15 0 0 0 .51 10a8.98 8.98 0 0 0 1.65 5.21l-.91.87a.57.57 0 0 0-.19.41c0 .16.07.3.19.41l2.01 1.9c.12.12.28.17.44.17.16 0 .32-.06.44-.17l3.14-2.96h6.9Z" fill="#46AAB4"/><path d="M17.03 13.26a6.5 6.5 0 0 0-.22-6.96.64.64 0 0 0-.86-.18.56.56 0 0 0-.19.8 5.42 5.42 0 0 1-.03 6.12.56.56 0 0 0 .08.73l2.89 2.72-1.14 1.07-.85-.8a.65.65 0 0 0-.8-.05 9.45 9.45 0 0 1-8.99.84.64.64 0 0 0-.83.28c-.14.3 0 .64.3.77a10.55 10.55 0 0 0 7.47.4c.83-.25 1.61-.61 2.34-1.07l.92.87c.24.23.63.23.88 0L20 16.9a.56.56 0 0 0 0-.82l-2.98-2.82Z" fill="#46AAB4"/></svg>