<svg xmlns="http://www.w3.org/2000/svg" viewBox="0 0 596.26 175.24"><path d="M32.58,90.63c0-15.09,3.83-27.63,10.86-37.07,9.48-12.76,24.79-19.85,44.4-19.85,18.15,0,33.45,6.75,43.2,19V2.94H43.44V53.5H2.34v87.6H58.88C42.18,132.19,32.58,114.64,32.58,90.63Z" transform="translate(-2.34 -2.94)" style="fill:#000"/><path d="M131,90.58V77.5H110.49c-2.11-10.57-10.12-17.37-21.59-17.37-13.72,0-23.38,10.09-23.41,30.41v.09c0,.05,0,.09,0,.14,0,20.44,9.69,30.51,23.4,30.51,11.47,0,19.93-7.09,22-17.51h31c-4.38,27.78-26,43.94-54.06,43.94A65.25,65.25,0,0,1,65.5,144v34.14h87.6V90.58Z" transform="translate(-2.34 -2.94)" style="fill:#000"/><path d="M598.6,76.26c-.9-.1-2.1-.2-3-.2-6.21,0-11.13,2.7-14.23,9.32V76H567.74v53.91h13.83V101.61c0-10.12,4.51-12.63,11.32-12.63a54.46,54.46,0,0,1,5.71.3ZM545,123.16a47.68,47.68,0,0,0,.9,6.71h12.73c-1-4.51-1.6-9.32-1.6-17.84,0-4.91.2-12,.2-13.73,0-18.24-10.42-23.75-23.25-23.75-13.83,0-22.65,7.82-23.65,18.44h12.93c.3-5.91,4.71-8.72,10-8.72,5.61,0,10.12,2.91,10.12,11.23v.9c-21.15,2.4-35.48,6.21-35.48,18.94,0,9.82,9.12,15.83,19.44,15.83,8.12,0,13.83-2.4,17.64-8m-1.2-13.93c0,7.81-3.71,12.52-12.33,12.52-6.21,0-9.32-3.2-9.32-7.11,0-6,6.22-7.82,21.65-9.42ZM486.67,98.5v31.37H500.5v-34c0-12.73-4.71-21.15-18.24-21.15-8.12,0-13.53,2.81-17.74,8.82-2.1-3.91-6.11-8.82-15.33-8.82-6.51,0-12,3-15,8.32V76H420.33v53.91h13.83V101.81c0-8.22,1.5-15.93,10.72-15.93,8.12,0,8.62,6.71,8.62,12.62v31.37h13.83V101.81c0-8.22,1.5-15.93,10.72-15.93,8.12,0,8.62,6.71,8.62,12.62m-75.06-6.31c-1.8-12.43-12.52-17.64-23.75-17.64-11.62,0-22.05,6.32-22.05,16s6.72,14,16.84,16.13l8,1.7c4.61,1,8.82,2.61,8.82,6.62s-3.81,6.11-9.72,6.11c-7.12,0-10.83-3.91-11.63-9.12H364.81c1.31,12.33,11.33,19.14,24.55,19.14,12.23,0,23.35-6.61,23.35-17.43,0-11.13-9.11-13.83-19.84-16.24l-7.21-1.6c-5.11-1.1-7.22-3.31-7.22-6.21,0-3.31,3.61-5.22,8.72-5.22,6.31,0,10.52,3.21,11.52,7.72ZM343.07,70H356.9V57.22H343.07Zm0,59.83H356.9V76H343.07ZM335,76.26c-.9-.1-2.1-.2-3-.2-6.21,0-11.12,2.7-14.23,9.32V76H304.09v53.91h13.82V101.61c0-10.12,4.51-12.63,11.33-12.63a54.6,54.6,0,0,1,5.71.3Zm-51.61,46.9a47.68,47.68,0,0,0,.9,6.71H297c-1-4.51-1.6-9.32-1.6-17.84,0-4.91.2-12,.2-13.73,0-18.24-10.42-23.75-23.25-23.75-13.83,0-22.65,7.82-23.65,18.44H261.6c.3-5.91,4.71-8.72,10-8.72,5.61,0,10.12,2.91,10.12,11.23v.9c-21.15,2.4-35.48,6.21-35.48,18.94,0,9.82,9.12,15.83,19.44,15.83,8.12,0,13.83-2.4,17.64-8m-1.2-13.93c0,7.81-3.71,12.52-12.33,12.52-6.21,0-9.32-3.2-9.32-7.11,0-6,6.22-7.82,21.65-9.42ZM228.53,106c-2.31,9.82-9.42,13.73-18,13.73-10.52,0-18.94-9.22-18.94-26.56,0-16.83,8.42-25.85,19.44-25.85,8,0,14.83,3.3,17.54,13.43h13.62c-2.4-15.14-14-24.86-31.06-24.86-21.15,0-34.37,14.33-34.37,37.28,0,23.15,12.42,38,34,38,17.43,0,29.56-10.52,31.46-25.15Z" transform="translate(-2.34 -2.94)" style="fill:#000"/></svg>