<svg xmlns="http://www.w3.org/2000/svg" viewBox="0 0 530.5 74.4"><title>carismar_black</title><path d="M37.9,9.3c-2.1-1.4-5.1-2.1-9.1-2.1h-9c-4,.1-7,.8-9.1,2.1a15.22,15.22,0,0,0-4.6,4.5,14.78,14.78,0,0,0-1.8,6.6V65.6q0,.3.3,2.4a11.77,11.77,0,0,0,1.8,4.5A12.81,12.81,0,0,0,11,76.8c2.1,1.3,5.1,1.9,8.9,1.9h9q5.85,0,9-2.1a14.14,14.14,0,0,0,4.6-4.5,14.17,14.17,0,0,0,1.8-6.7V61H34.5v4.3a4.4,4.4,0,0,1-.1.9,7.72,7.72,0,0,1-.6,1.5,4.12,4.12,0,0,1-1.7,1.4,8,8,0,0,1-3.4.6H19.8a7.67,7.67,0,0,1-3.4-.6,4.12,4.12,0,0,1-1.7-1.4,4.71,4.71,0,0,1-.6-1.5c0-.4-.1-.7-.1-.9V20.4a3.94,3.94,0,0,1,.6-2.1,8.62,8.62,0,0,1,1.7-1.5,7.51,7.51,0,0,1,3.4-.7h8.9a6.39,6.39,0,0,1,3.4.7,3.63,3.63,0,0,1,1.7,1.5,4.2,4.2,0,0,1,.6,2.1v4.4h9.9V20.4a15,15,0,0,0-1.9-6.5A12.64,12.64,0,0,0,37.9,9.3Z" transform="translate(-4.3 -4.4)"/><path d="M87.3,7.1,72.5,78.8h9.7l3.4-16.2H99.5l3.4,16.2h9.7L97.7,7.1Zm.1,46.6,5-24.7,5.2,24.7Z" transform="translate(-4.3 -4.4)"/><path d="M175.5,9.2c-2.1-1.4-5.1-2.1-9.1-2.1H141.8V78.7h9.8V45.2h10.3l9.9,33.6H182l-9.9-34.3a12,12,0,0,0,5.7-3.1,14.14,14.14,0,0,0,2.9-4.1,13.19,13.19,0,0,0,1.2-5.2V20.3a15,15,0,0,0-1.9-6.5A13.93,13.93,0,0,0,175.5,9.2ZM172.2,32a3.7,3.7,0,0,1-.6,2.1,8.62,8.62,0,0,1-1.7,1.5,7.51,7.51,0,0,1-3.4.7H151.7V16h14.8a6.39,6.39,0,0,1,3.4.7,3.63,3.63,0,0,1,1.7,1.5,4.2,4.2,0,0,1,.6,2.1Z" transform="translate(-4.3 -4.4)"/><polygon points="207.9 11.6 223.1 11.6 223.1 65.5 207.9 65.5 207.9 74.4 247.9 74.4 247.9 65.5 232.9 65.5 232.9 11.6 247.9 11.6 247.9 2.7 207.9 2.7 207.9 11.6"/><path d="M315.8,9.2c-2.1-1.4-5.1-2.1-9.1-2.1h-9c-4,.1-7,.8-9.1,2.1a15.22,15.22,0,0,0-4.6,4.5,14,14,0,0,0-1.8,6.5V32.6c0,.1.1.4.2.9a2.14,2.14,0,0,0,1,1.2l29.1,20.8v9.9a4,4,0,0,1-.6,2.2,8.62,8.62,0,0,1-1.7,1.5,7.51,7.51,0,0,1-3.4.7h-9a6.39,6.39,0,0,1-3.4-.7,3.63,3.63,0,0,1-1.7-1.5,4.28,4.28,0,0,1-.6-2.2V57.3h-9.8v8.2a14.09,14.09,0,0,0,1.8,6.6,15.22,15.22,0,0,0,4.6,4.5c2.1,1.4,5.1,2,9.1,2h9.1c3.9,0,6.9-.7,9-2a15.22,15.22,0,0,0,4.6-4.5,14.09,14.09,0,0,0,1.8-6.6V52.7a2,2,0,0,0-.1-.7,3.32,3.32,0,0,0-1-1.4l-29.1-21V20.4a3.7,3.7,0,0,1,.6-2.1,8.62,8.62,0,0,1,1.7-1.5,7.51,7.51,0,0,1,3.4-.7h9a6.39,6.39,0,0,1,3.4.7,3.63,3.63,0,0,1,1.7,1.5,4.2,4.2,0,0,1,.6,2.1v5.9h9.8V20.4a15,15,0,0,0-1.9-6.5A14.61,14.61,0,0,0,315.8,9.2Z" transform="translate(-4.3 -4.4)"/><path d="M440.1,7.1,425.3,78.7H435l3.4-16.2h13.9l3.4,16.2h9.7L450.6,7.1Zm.1,46.6L445.3,29l5.2,24.7Z" transform="translate(-4.3 -4.4)"/><path d="M533.6,37.2a11.67,11.67,0,0,0,1.2-5.2V20.3a15,15,0,0,0-1.9-6.5,15.44,15.44,0,0,0-4.6-4.6c-2.1-1.4-5.1-2.1-9.1-2.1H494.6V78.7h9.8V45.2h10.3l9.9,33.6h10.1l-9.9-34.3a12,12,0,0,0,5.7-3.1A12.61,12.61,0,0,0,533.6,37.2ZM525,32a3.7,3.7,0,0,1-.6,2.1,8.62,8.62,0,0,1-1.7,1.5,7.51,7.51,0,0,1-3.4.7H504.5V16h14.8a6.39,6.39,0,0,1,3.4.7,3.63,3.63,0,0,1,1.7,1.5,4.2,4.2,0,0,1,.6,2.1Z" transform="translate(-4.3 -4.4)"/><polygon points="368.1 14.3 357.9 2.7 348.1 2.7 348.1 74.4 357.9 74.4 357.9 15.7 368.1 27.3 392 0 380.7 0 368.1 14.3"/><polygon points="381.8 74.4 391.6 74.4 391.6 11 381.8 22.1 381.8 74.4"/></svg>