<svg xmlns="http://www.w3.org/2000/svg" viewBox="0 0 530.53 74.42"><defs><style>.a{fill:#fff;}</style></defs><title>carismar_white</title><path class="a" d="M37.92,9.34q-3.11-2.1-9.1-2.1h-9q-6,.1-9.1,2.15a14.42,14.42,0,0,0-4.58,4.5,13.44,13.44,0,0,0-1.81,6.55V65.66q0,.31.28,2.4a11.78,11.78,0,0,0,1.75,4.5A13.6,13.6,0,0,0,11,76.91q3.16,1.94,8.92,1.94h9q5.88,0,9-2.06a14.3,14.3,0,0,0,4.63-4.53,13.77,13.77,0,0,0,1.81-6.69V61.21h-9.8v4.35a7,7,0,0,1-.11.87,4.23,4.23,0,0,1-.62,1.48,4.15,4.15,0,0,1-1.75,1.43,7.71,7.71,0,0,1-3.38.61h-8.9a7.65,7.65,0,0,1-3.44-.61,4.18,4.18,0,0,1-1.69-1.43,3.41,3.41,0,0,1-.56-1.48c0-.44-.06-.73-.06-.87V20.43a4.37,4.37,0,0,1,.56-2.15,5.09,5.09,0,0,1,1.75-1.48,7.15,7.15,0,0,1,3.44-.66h8.9a7.14,7.14,0,0,1,3.44.67,5.11,5.11,0,0,1,1.75,1.48,4.4,4.4,0,0,1,.56,2.15v4.4h9.92v-4.4a14.4,14.4,0,0,0-1.92-6.55A14.89,14.89,0,0,0,37.92,9.34Z" transform="translate(-4.31 -4.44)"/><path class="a" d="M87.26,7.14,72.5,78.75h9.69l3.38-16.16H99.42l3.38,16.16h9.69L97.73,7.14Zm.11,46.55L92.44,29l5.18,24.65Z" transform="translate(-4.31 -4.44)"/><path class="a" d="M175.51,9.24q-3.1-2.1-9.07-2.1H141.88V78.75h9.8V45.2h10.25l9.91,33.56H182l-9.92-34.27a12.35,12.35,0,0,0,5.75-3.12,14.52,14.52,0,0,0,2.93-4.14A13.78,13.78,0,0,0,182,32V20.34a14.44,14.44,0,0,0-1.92-6.55A14.88,14.88,0,0,0,175.51,9.24ZM172.19,32a4,4,0,0,1-.56,2.15,5.09,5.09,0,0,1-1.75,1.48,7.12,7.12,0,0,1-3.44.67H151.68V16h14.76a7.15,7.15,0,0,1,3.44.67,5.13,5.13,0,0,1,1.75,1.48,4.4,4.4,0,0,1,.56,2.15Z" transform="translate(-4.31 -4.44)"/><polygon class="a" points="207.85 11.61 223.06 11.61 223.06 65.42 207.85 65.42 207.85 74.32 247.84 74.32 247.84 65.42 232.86 65.42 232.86 11.61 247.84 11.61 247.84 2.71 207.85 2.71 207.85 11.61"/><path class="a" d="M315.81,9.24q-3.1-2.1-9.07-2.1h-9q-6,.1-9.07,2.14a14.37,14.37,0,0,0-4.56,4.49,13.44,13.44,0,0,0-1.8,6.54V32.68a4.69,4.69,0,0,0,.17.87,2,2,0,0,0,1,1.17l29.07,20.84v9.9a4.57,4.57,0,0,1-.56,2.25,5.07,5.07,0,0,1-1.73,1.48,7.09,7.09,0,0,1-3.42.66h-9a7.12,7.12,0,0,1-3.42-.66,5,5,0,0,1-1.74-1.47,4.51,4.51,0,0,1-.56-2.23V57.37h-9.8v8.18a13.66,13.66,0,0,0,1.8,6.65,14.36,14.36,0,0,0,4.56,4.5q3.1,2,9.07,2h9.13q5.86,0,9-2a14.24,14.24,0,0,0,4.62-4.5,13.66,13.66,0,0,0,1.8-6.65V52.67a2.81,2.81,0,0,0-.11-.72,3.41,3.41,0,0,0-1-1.43l-29.07-21V20.34a4.38,4.38,0,0,1,.56-2.15,5.08,5.08,0,0,1,1.74-1.48,7.07,7.07,0,0,1,3.42-.67h9a7.08,7.08,0,0,1,3.42.67,5.09,5.09,0,0,1,1.73,1.48,4.39,4.39,0,0,1,.56,2.15v5.93h9.8V20.34a14.46,14.46,0,0,0-1.91-6.55A14.89,14.89,0,0,0,315.81,9.24Z" transform="translate(-4.31 -4.44)"/><path class="a" d="M440.13,7.14,425.37,78.75h9.69l3.38-16.16H452.3l3.38,16.16h9.69L450.61,7.14Zm.11,46.55L445.31,29l5.18,24.65Z" transform="translate(-4.31 -4.44)"/><path class="a" d="M533.6,37.22A13.75,13.75,0,0,0,534.84,32V20.34a14.45,14.45,0,0,0-1.91-6.55,14.89,14.89,0,0,0-4.56-4.55q-3.1-2.1-9.07-2.1H494.73V78.75h9.8V45.2h10.25l9.92,33.56h10.14l-9.91-34.27a12.35,12.35,0,0,0,5.75-3.12A14.47,14.47,0,0,0,533.6,37.22ZM525,32a4,4,0,0,1-.56,2.15,5.08,5.08,0,0,1-1.75,1.48,7.13,7.13,0,0,1-3.44.67H504.53V16h14.76a7.15,7.15,0,0,1,3.44.67,5.12,5.12,0,0,1,1.75,1.48,4.4,4.4,0,0,1,.56,2.15Z" transform="translate(-4.31 -4.44)"/><polygon class="a" points="368.1 14.23 357.93 2.71 348.13 2.71 348.13 74.32 357.93 74.32 357.93 15.7 368.1 27.23 392.01 0 380.68 0 368.1 14.23"/><polygon class="a" points="381.81 74.32 391.61 74.32 391.61 10.94 381.81 22.05 381.81 74.32"/></svg>