<svg width="67" height="14" fill="none" xmlns="http://www.w3.org/2000/svg"><path d="M67 0v14H0V0h67z" fill="#FECC00"/><path d="M21.602 5.85c-.293.375-.782 1.028-1.08 1.409-.152.193-.425.545.481.545h4.771l1.414-1.818c.877-1.127.076-3.472-3.06-3.472H11.784l-2.14 2.754h11.666c.59 0 .581.212.293.582zm-3.505 2.634c-.906 0-.633-.353-.481-.547.298-.38.796-1.027 1.089-1.402.288-.37.295-.582-.294-.582h-5.336l-4.3 5.532H19.26c3.463 0 5.39-2.23 5.985-3l-7.148-.001zm6.82 3.001h6.15L33.4 8.483l-6.15.001-2.332 3.001zm15.869-8.971l-2.359 3.034h-2.745l2.358-3.034h-6.148l-4.114 5.29h15.043l4.113-5.29h-6.148zm-6.973 8.971h6.148l2.332-3h-6.148c-.002-.001-2.332 3-2.332 3zM0 9.668v.637h8.565l.495-.637H0zm9.98-1.184H0v.636h9.485l.496-.636zM0 11.485h7.648l.492-.634H0v.634zm57.974-1.18H67v-.638h-8.53l-.496.638zm-.917 1.18H67v-.634h-9.45l-.493.634zm2.332-3.001l-.495.637H67v-.637h-7.611zm-8.053-.68l4.113-5.29h-6.512c-.002 0-4.116 5.29-4.116 5.29h6.515zm-7.042.68l-.668.861c-.772.988-.09 2.14 2.43 2.14h9.875l2.332-3h-13.97v-.001z" fill="#D50029"/></svg>