<svg version="1.1" id="Lager_1" xmlns="http://www.w3.org/2000/svg" xmlns:xlink="http://www.w3.org/1999/xlink" x="0px" y="0px" viewBox="0 0 736 284" style="enable-background:new 0 0 736 284;" xml:space="preserve">
<style type="text/css">.st0{fill:#FFFFFF;}</style>
<path class="st0" d="M294.9,138.9c-10,0-18.1,8.1-18.1,18.1v0.2c0.3,4.1-0.7,7.4-2.9,9.7c-3.4,3.6-8.9,4.4-10.9,4.5
	c-0.3,0-33.3,0-33.3,0c-0.1,0-7.5-0.1-11.7-4.5c-2.2-2.3-3.2-5.6-2.9-9.7V92.5v-0.2c-0.3-4.1,0.7-7.4,2.9-9.7
	c4.2-4.5,11.6-4.5,11.7-4.5h30.1c1.5,0,3.1,0,4.2,0c5.9,0.9,11.9,4.6,12.3,13.3v0.1c0.9,12.6-6.4,15-12,15.3
	c-0.9,0-17.4-0.1-17.4-0.1c-10,0-18.1,8.1-18.1,18.1s8.1,18.1,18.1,18.1h15.3c10,0,18.1-8.1,18.1-18.1c0-0.4,0.1-1.5,0.1-1.8
	c1.2-12.4,10.9-11.8,14.1-12.3h0.2c10,0,18.1-8.1,18.1-18.1c0-10-8.1-18.1-18.1-18.1h-0.2c-2.7,0-13.2-0.5-14.2-12.6
	c0-0.7,0-1.8,0-2.2c0-10-8.1-17.8-18.1-17.8h-32.5c-10,0-18.1,8.1-18.1,18c-1.4,14.8-13.1,14.7-14.4,14.6h-0.2
	c-10,0-18.1,8.1-18.1,18.1V157c0,10,8.1,18.1,18.1,18.1h0.2c1.3-0.1,13-0.2,14.4,14.6c0.1,8.4,5.8,15.4,13.6,17.4c0,0,0,0,0,0
	c0.2,0.1,0.4,0.1,0.5,0.1c0.3,0.1,0.6,0.1,0.9,0.2c1.1,0.2,2.1,0.4,3.3,0.4h32.5c9.9,0,18.1-8.1,18.1-18
	c1.4-14.8,13.1-14.7,14.4-14.6h0.2c10,0,18.1-8.1,18.1-18.1S304.9,138.9,294.9,138.9L294.9,138.9z"/>
<path class="st0" d="M539.3,74h-0.2c-1.3,0.1-13,0.2-14.4-14.6c-0.1-7.3-4.4-13.6-10.7-16.4c0,0-2.7-1.6-7.2-1.6h-32.5
	c-10,0-18.1,8.1-18.1,18C454.8,74.2,443.1,74,441.8,74h-0.2c-10,0-18.1,8.1-18.1,18.1v97.2c0,10,8.1,18.1,18.1,18.1
	s18.1-8.1,18.1-18.1V91.9c-0.3-4.1,0.7-7.4,2.9-9.7c4.2-4.5,11.6-4.5,11.7-4.5h32.2c0.1,0,7.5,0.1,11.7,4.5c2.2,2.3,3.2,5.6,2.9,9.7
	V104V157c0,0.1-0.1,7.5-4.5,11.7c-2.3,2.2-5.6,3.2-9.7,2.9h-0.2c-10,0-18.1,8.1-18.1,18.1s8.1,18.1,18.1,18.1s18.1-8.1,18.1-18.1
	v-0.2c-0.1-1.3-0.2-13,14.6-14.4c9.9-0.1,18-8.2,18-18.1v-20.4V92.1C557.4,82.1,549.3,74,539.3,74L539.3,74z"/>
<path class="st0" d="M368.1,87.5c-10,0-18.1,8.1-18.1,18.1v84c0,10,8.1,18.1,18.1,18.1s18.1-8.1,18.1-18.1v-84
	C386.3,95.6,378.1,87.5,368.1,87.5z"/>
<path class="st0" d="M710.8,139.2h-0.2c-0.5,0-13,0.6-14.4-14.7c0-0.1,0-0.2,0-0.2c-0.3-9.7-8.4-17.6-18.1-17.6h-32.6
	c-0.8,0-7.6-0.3-11.6-4.5c-2.2-2.3-2.9-5.6-2.9-9.7v-0.4c0-4.1,0.7-7.4,2.9-9.7c4.2-4.5,11.6-4.5,11.7-4.5l32.4,0
	c10,0,18.2-8.1,18.2-18.2c0-0.1,0-0.2,0-0.3c0,0,0.1,0,0.1,0c-0.2-9.8-8.2-17.8-18.1-17.8h-32.5c-10,0-18.1,8.1-18.1,18
	C626,74.2,614.3,74.1,613,74h-0.2c-10,0-18.1,8.1-18.1,18.1s8.1,18.1,18.1,18.1h0.2c0.5,0,12.9-0.6,14.4,14.6
	c0.1,9.9,8.2,18,18.1,18H678c0.5,0,7.5,0.1,11.7,4.5c2.2,2.3,2.9,5,2.9,9.3v0.6c0,4.1-0.7,7.5-2.9,9.9c-4.1,4.4-11.4,4.6-11.7,4.6
	h-32.3c-0.1,0-7.5-0.1-11.7-4.5c-2.2-2.3-3.2-5.5-2.9-9.6l0-0.4c0-10-8.1-18.1-18.1-18.1s-18.1,8.1-18.1,18.1s8.1,18.1,18.1,18.1
	h0.3c1.6,0,12.9-0.2,14.3,14.6c0.1,9.9,8.2,18,18.1,18h32.5c10,0,18.1-8.1,18.1-18.1c0-0.4,0-0.9-0.1-1.3c2-13.3,13-13.2,14.2-13.1
	h0.2c10,0,18.1-8.1,18.1-18.1C728.9,147.3,720.8,139.2,710.8,139.2L710.8,139.2z"/>
<path class="st0" d="M368.1,41.4c-10.1,0-18.2,8.2-18.2,18.2s8.2,18.2,18.2,18.2s18.2-8.2,18.2-18.2S378.2,41.4,368.1,41.4z"/>
<path class="st0" d="M123.1,74H123c-1.1,0.1-8.9,0.1-12.6-7.7c0,0,0-0.1-0.1-0.1c-0.1-0.2-0.2-0.5-0.3-0.7c0-0.1-0.1-0.2-0.1-0.3
	c-0.1-0.2-0.2-0.4-0.2-0.6c-0.1-0.2-0.1-0.3-0.2-0.5s-0.1-0.3-0.1-0.5c-0.1-0.2-0.1-0.4-0.2-0.7c0-0.1-0.1-0.2-0.1-0.4
	c-0.1-0.3-0.1-0.6-0.2-0.9c0-0.1,0-0.1,0-0.2c-0.1-0.4-0.1-0.7-0.2-1.1c0-0.3-0.1-0.7-0.1-1c-0.1-7.3-4.4-13.6-10.7-16.4
	c0,0-2.9-1.4-5.6-1.5c-0.4,0-1.4-0.1-1.6-0.1H58.2c-10,0-18.1,8.1-18.1,18C38.6,74.1,26.9,74,25.6,74h-0.2c-10,0-18.1,8.1-18.1,18.1
	v65.2c0,10,8.1,18.1,18.1,18.1h0.2c1.7,0,12-0.2,14.2,12.8l0,1.8c-1.4,14.8-12.3,14.1-14.5,14.4h-0.2C14.4,204.8,7,212.6,7,222.6
	s8.1,18.1,18.1,18.1c0.4,0,0.6,0,1.1,0c3,0.1,12.3,1.6,13.5,14.6c0.1,8.4,5.8,15.4,13.6,17.4c0,0,0,0,0,0c0.2,0.1,0.4,0.1,0.5,0.1
	c0.3,0.1,0.6,0.1,0.9,0.2c1.1,0.2,2.2,0.4,3.3,0.4h32.5c9.9,0,18.1-8.1,18.1-18c1.4-14.8,13.1-14.7,14.4-14.6h0.2
	c10,0,18.1-8.1,18.1-18.1s-8.1-18.1-18.1-18.1s-18.1,8.1-18.1,18.1v0.2c0.3,4.1-0.7,7.4-2.9,9.7c-3.4,3.6-8.9,4.4-10.9,4.5
	c-0.3,0-33.3,0-33.3,0c-0.1,0-7.5-0.1-11.7-4.5c-2.2-2.3-2.9-5.6-2.9-9.7V220c0.2-3,1.2-5.5,2.9-7.3c3.4-3.6,8.9-4.8,10.9-5
	c0.2,0,33.3,0,33.3,0c10,0,18.1-7.7,18.1-17.6c1.4-14.8,13.1-14.7,14.4-14.6h0.2c10,0,18.1-8.1,18.1-18.1V92.1
	C141.3,82.1,133.1,74,123.1,74L123.1,74z M102.1,167.2c-4.2,4.5-11.6,4.5-11.7,4.5H58.2c-0.1,0-7.5-0.1-11.7-4.5
	c-2.2-2.3-3.2-5.6-2.9-9.7v-0.2V92.1v-0.2v0c0-0.5,0-1,0-1.5c0-3.4,1-6.2,2.9-8.2c3.5-3.7,9.2-4.4,11.1-4.5c0.1,0,0.2,0,0.4,0h32.5
	c0.2,0,0.3,0,0.5,0c1.7,0.1,7.6,0.7,11.2,4.5c1.9,2,2.9,4.8,2.9,8.2c0,0.5,0,1,0,1.5v0.2v65.2v0.2
	C105.3,161.6,104.3,164.9,102.1,167.2L102.1,167.2z"/>
<path class="st0" d="M123.3,45.3c10.1,0,18.2-8.2,18.2-18.2c0-10.1-8.2-18.2-18.2-18.2s-18.2,8.2-18.2,18.2
	C105.1,37.1,113.2,45.3,123.3,45.3z"/>
<path class="st0" d="M710.7,110.2c10.1,0,18.2-8.2,18.2-18.2s-8.2-18.2-18.2-18.2c-10.1,0-18.2,8.2-18.2,18.2
	S700.6,110.2,710.7,110.2z"/>
</svg>
