<svg xmlns="http://www.w3.org/2000/svg" fill="none" viewBox="0 0 75 24"><g clip-path="url(#a)"><rect x=".66" y=".92" width="73.85" height="22.15" rx=".81" fill="#FF3E3E"/><g clip-path="url(#b)" fill-rule="evenodd" clip-rule="evenodd" fill="#fff"><path d="m66.78 13.32 3.02 4.57h-3.25l-1.47-2.33-1.48 2.33h-3.1l3-4.55-2.86-4.4h3.23l1.34 2.15 1.36-2.15h3.1l-2.9 4.38Z"/><path d="M56.4 11.3c-.93 0-1.44.88-1.44 2.12 0 1.23.51 2.09 1.43 2.09.94 0 1.45-.86 1.45-2.1 0-1.23-.51-2.1-1.45-2.1Zm0 6.8c-2.6 0-4.4-1.92-4.4-4.68 0-2.77 1.8-4.68 4.4-4.68 2.61 0 4.39 1.91 4.39 4.68 0 2.76-1.78 4.67-4.4 4.67Zm-10.88-3.51a1.44 1.44 0 0 0 1.32.84c1.03 0 1.64-.86 1.64-2.01 0-1.16-.61-2.03-1.64-2.03a1.5 1.5 0 0 0-1.32.83v2.37Zm0 3.3h-3V4.96h3v4.7c.4-.48 1.24-.92 2.12-.92 2.48 0 3.84 2.09 3.84 4.68 0 2.58-1.36 4.67-3.84 4.67-.88 0-1.72-.44-2.12-.91v.71Zm-7.23-3.02c-.19-.38-.67-.62-1.2-.62-.6 0-1.19.26-1.19.86 0 .61.6.87 1.19.87.53 0 1.01-.24 1.2-.6v-.51Zm0-2.37c0-.7-.6-1.2-1.83-1.2a4.6 4.6 0 0 0-2.35.64v-2.5c.7-.4 1.85-.7 3.07-.7 2.55 0 4 1.25 4 3.62v5.53h-2.89v-.45c-.28.3-1.1.61-2.02.61-1.7 0-3.16-1-3.16-2.88 0-1.73 1.45-2.85 3.3-2.85.74 0 1.54.24 1.88.5v-.32Zm-6.86 5.4h-2.98v-6.53h-1.5V8.94h1.5V6.47h2.98v2.47h1.68v2.43h-1.68v6.52Zm-11.7-3.29c.81.7 2.15 1.13 3.03 1.13.6 0 .98-.14.98-.53 0-.36-.27-.5-.79-.62l-.67-.18c-1.58-.36-2.6-1.13-2.6-2.74 0-1.87 1.5-2.93 3.52-2.93a5.3 5.3 0 0 1 3 .8v2.56a4.58 4.58 0 0 0-2.71-1.03c-.52 0-.86.18-.86.54 0 .33.25.45.67.57l.78.24c1.87.52 2.62 1.31 2.62 2.83 0 1.9-1.59 2.84-3.71 2.84-1.2 0-2.47-.3-3.27-.85V14.6Zm-9.5-5.67h3.01v.78a3.06 3.06 0 0 1 2.31-.98c1.92 0 3.04 1.3 3.04 3.28v5.87h-2.98v-5.11c0-.74-.36-1.27-1.13-1.27-.59 0-1.09.35-1.24.97v5.41h-3V8.94Zm-4.38 8.95h3V8.94h-3v8.95Zm1.51-9.7c-.92 0-1.7-.66-1.7-1.68 0-1.03.78-1.69 1.7-1.69.92 0 1.7.66 1.7 1.7 0 1-.78 1.66-1.7 1.66Z"/></g></g><defs><clipPath id="a"><path fill="#fff" transform="translate(.66 .92)" d="M0 0h73.85v22.15H0z"/></clipPath><clipPath id="b"><path fill="#fff" transform="translate(5.32 4.82)" d="M0 0h64.51v13.55H0z"/></clipPath></defs></svg>