<svg width="38" height="22" fill="none" xmlns="http://www.w3.org/2000/svg"><g clip-path="url(#clip0)"><path d="M33.772.89H3.587C1.607.89 0 2.472 0 4.424v13.387c0 1.953 1.606 3.536 3.587 3.536h30.185c1.981 0 3.587-1.583 3.587-3.536V4.425c0-1.952-1.606-3.536-3.587-3.536z" fill="#FFB3C7"/><path d="M33.867 12.875a.883.883 0 00-.885.88c0 .486.396.88.885.88a.883.883 0 00.885-.88.883.883 0 00-.885-.88zm-2.912-.68c0-.666-.572-1.206-1.277-1.206-.706 0-1.278.54-1.278 1.205 0 .666.572 1.206 1.278 1.206.705 0 1.277-.54 1.277-1.206zm.005-2.343h1.41v4.684h-1.41v-.299c-.398.27-.88.43-1.398.43a2.478 2.478 0 01-2.485-2.473 2.478 2.478 0 012.485-2.471c.519 0 1 .159 1.398.429v-.3zm-11.284.61v-.61h-1.444v4.684h1.447V12.35c0-.738.804-1.135 1.362-1.135h.017V9.854c-.573 0-1.1.244-1.382.61zm-3.596 1.732c0-.665-.572-1.205-1.278-1.205-.705 0-1.278.54-1.278 1.205 0 .666.573 1.206 1.278 1.206.706 0 1.278-.54 1.278-1.206zm.005-2.342h1.41v4.684h-1.41v-.299c-.399.27-.88.43-1.398.43a2.478 2.478 0 01-2.485-2.473 2.478 2.478 0 012.485-2.471c.518 0 1 .159 1.397.429v-.3zm8.487-.126c-.564 0-1.097.174-1.453.654v-.528h-1.404v4.685h1.421v-2.462c0-.712.48-1.061 1.059-1.061.62 0 .976.368.976 1.051v2.472h1.408v-2.98c0-1.09-.871-1.83-2.007-1.83zm-14.424 4.81h1.476V7.766h-1.476v6.772zm-6.483.002h1.562V7.763H3.665v6.775zM9.13 7.763a5.375 5.375 0 01-1.599 3.846l2.16 2.93h-1.93l-2.348-3.184.606-.452a3.884 3.884 0 001.581-3.14h1.53z" fill="#0A0B09"/></g><defs><clipPath id="clip0"><path d="M0 .89h37.36v20.458H0V.889z" fill="#fff"/></clipPath></defs></svg>