<svg fill="none" width="34.478" height="27.647" xmlns="http://www.w3.org/2000/svg"><g clip-path="url(#a)" transform="translate(-4.677 -4.218)"><path d="M11 31.47v-1.8a1.08 1.08 0 0 0-.3-.82 1.05 1.05 0 0 0-.8-.3 1.07 1.07 0 0 0-.99.5 1.04 1.04 0 0 0-.93-.5.92.92 0 0 0-.82.42v-.36h-.62v2.86h.62V29.9a.68.68 0 0 1 .17-.55.66.66 0 0 1 .52-.21c.4 0 .61.27.61.75v1.6h.62v-1.6a.68.68 0 0 1 .17-.54.66.66 0 0 1 .52-.21c.42 0 .62.27.62.75v1.6l.62-.02zm9.15-2.86h-1v-.86h-.63v.86h-.55v.57h.57v1.32c0 .66.25 1.05.97 1.05.27 0 .54-.07.77-.22l-.18-.53c-.16.1-.35.16-.54.16-.3 0-.4-.19-.4-.48v-1.3h1zm5.22-.07a.82.82 0 0 0-.74.42v-.35h-.6v2.86h.6v-1.6c0-.47.2-.74.6-.74.12 0 .25.03.37.07l.2-.6a1.3 1.3 0 0 0-.44-.07v.01zm-7.9.3c-.34-.2-.74-.31-1.14-.3-.71 0-1.18.35-1.18.92 0 .46.34.75.97.84l.3.04c.33.05.5.14.5.3 0 .22-.23.35-.65.35-.34 0-.67-.1-.94-.3l-.29.48a2 2 0 0 0 1.22.37c.81 0 1.28-.39 1.28-.93s-.37-.77-.98-.86l-.3-.04c-.26-.03-.47-.09-.47-.28 0-.19.2-.33.53-.33.31 0 .62.08.89.24l.27-.5zm16.4-.3a.82.82 0 0 0-.74.42v-.35h-.6v2.86h.6v-1.6c0-.47.2-.74.6-.74.12 0 .25.03.38.07l.18-.6a1.3 1.3 0 0 0-.43-.07zm-7.89 1.5a1.47 1.47 0 0 0 .43 1.08 1.42 1.42 0 0 0 1.08.41c.36.02.72-.1 1-.34l-.29-.5c-.2.16-.47.25-.73.25a.9.9 0 0 1-.6-.29.93.93 0 0 1 0-1.24.9.9 0 0 1 .6-.3c.26 0 .52.1.73.26l.3-.5a1.46 1.46 0 0 0-1.01-.34 1.4 1.4 0 0 0-1.08.4 1.45 1.45 0 0 0-.43 1.1zm5.74 0V28.6h-.62v.35a1.07 1.07 0 0 0-.88-.42c-.39 0-.76.16-1.04.44a1.5 1.5 0 0 0 0 2.11c.28.28.65.44 1.04.44a1.05 1.05 0 0 0 .88-.42v.35h.62v-1.42zm-2.28 0a.87.87 0 0 1 .56-.77.84.84 0 0 1 .9.22.87.87 0 0 1-.6 1.46.83.83 0 0 1-.81-.57.87.87 0 0 1-.05-.34zm-7.39-1.5c-.39 0-.76.17-1.03.45a1.5 1.5 0 0 0 .03 2.12c.28.27.65.43 1.04.42.43.02.84-.12 1.17-.39l-.3-.46c-.22.2-.51.3-.81.3a.77.77 0 0 1-.56-.18.8.8 0 0 1-.28-.52h2.09v-.24c0-.9-.55-1.5-1.34-1.5zm0 .56a.69.69 0 0 1 .5.2.71.71 0 0 1 .21.5H21.3c.01-.2.1-.38.24-.51.14-.13.32-.2.51-.2h.01zm15.34.94v-2.58h-.6v1.5a1.07 1.07 0 0 0-.87-.42c-.4 0-.77.16-1.04.44a1.5 1.5 0 0 0 0 2.11c.27.28.65.44 1.04.44a1.05 1.05 0 0 0 .88-.42v.35h.59zm1.02 1.02a.29.29 0 0 1 .2.08.28.28 0 0 1-.1.46.27.27 0 0 1-.1.02.29.29 0 0 1-.29-.28c0-.04 0-.08.02-.11a.3.3 0 0 1 .07-.1.3.3 0 0 1 .2-.07zm0 .5a.2.2 0 0 0 .15-.07.22.22 0 0 0 0-.3.2.2 0 0 0-.24-.05.22.22 0 0 0-.07.06.22.22 0 0 0 0 .3l.07.04c.03.02.07.02.1.02zm.02-.36c.02 0 .05.01.07.03a.07.07 0 0 1 .03.06.07.07 0 0 1-.02.06.1.1 0 0 1-.06.02l.08.1h-.07l-.07-.1h-.03v.1h-.06v-.26h.13zm-.07.06v.07h.1a.03.03 0 0 0 0-.03.03.03 0 0 0 0-.03h-.03zm-3.24-1.22a.87.87 0 0 1 .56-.76.84.84 0 0 1 .91.22.87.87 0 0 1-.61 1.46.83.83 0 0 1-.63-.27.86.86 0 0 1-.23-.65zm-20.66 0v-1.43h-.61v.35a1.07 1.07 0 0 0-.89-.42c-.39 0-.76.16-1.04.44a1.5 1.5 0 0 0 0 2.11c.28.28.65.44 1.04.44a1.05 1.05 0 0 0 .89-.42v.35h.6v-1.42zm-2.28 0a.87.87 0 0 1 .56-.76.84.84 0 0 1 .9.22.87.87 0 0 1-.6 1.46.83.83 0 0 1-.63-.27.86.86 0 0 1-.24-.65z" fill="#231f20"/><path d="M26.54 6.83h-9.27v16.93h9.27z" fill="#ff5f00"/><path d="M17.86 15.3a10.89 10.89 0 0 1 4.05-8.47A10.5 10.5 0 0 0 6.38 9.58a10.9 10.9 0 0 0 4.35 15.4 10.45 10.45 0 0 0 11.18-1.22 10.71 10.71 0 0 1-4.05-8.46Z" fill="#eb001b"/><path d="M39.05 15.3c0 2.01-.56 4-1.61 5.7a10.65 10.65 0 0 1-4.35 3.98 10.45 10.45 0 0 1-11.18-1.22 10.73 10.73 0 0 0 4.05-8.47 10.9 10.9 0 0 0-4.05-8.46 10.5 10.5 0 0 1 15.53 2.75 10.89 10.89 0 0 1 1.61 5.71zm-1.01 6.66v-.35h.13v-.07h-.35v.07h.15v.35zm.68 0v-.42h-.11l-.12.3-.13-.3h-.1v.42h.09v-.31l.11.27h.08l.11-.27v.31z" fill="#f79e1b"/></g><defs><clipPath id="a"><path fill="#fff" transform="translate(.3)" d="M0 0h43.2v36H0Z"/></clipPath></defs></svg>