<svg data-name="Layer 1" xmlns="http://www.w3.org/2000/svg" viewBox="0 0 118 28"><path d="M33.33 4.92v11.4l-11.39-5.77a1.74 1.74 0 0 0-1.57 0L9 16.32V4.92H0V5l5.31 3.14v11.38a1.58 1.58 0 0 0 2.36 1.22l13.48-6.83 13.49 6.83A1.58 1.58 0 0 0 37 19.52V4.92ZM60.15 13v7.92h-3.82V19a22.87 22.87 0 0 1-9.93 2.41c-4.63 0-7.2-1.62-7.2-5.23 0-4.09 4.32-5.41 9.15-5.41a30.2 30.2 0 0 1 8 1.15C56.23 8.48 52.17 8 49.89 8a26.55 26.55 0 0 0-8.3 1.35l-1.11-2.9a33.58 33.58 0 0 1 9.9-1.53c6.44 0 9.72 2.08 9.77 8.08Zm-3.82 3.32v-1.55a27.47 27.47 0 0 0-7.64-1.09c-3.36 0-5.41.66-5.41 2.35s1.64 2.18 4.32 2.18a30.62 30.62 0 0 0 8.73-1.89ZM62.47 0h3.79v20.93h-3.79V0zM68.71 0h3.79v20.93h-3.79V0zM91.41 15.63h4c-.92 3.58-4.43 5.71-10.07 5.71-6.34 0-10.73-2.65-10.73-8.19S79.14 5 85.07 5s10.54 2.33 10.54 9h-17c.36 3 2.73 4.16 6.78 4.16 3.68-.02 5.3-1.04 6.02-2.53Zm-12.6-4.37h12.6C90.75 9 88.58 8 85.08 8c-3.3 0-5.54.93-6.27 3.26Z"/><path d="M113.69 5H118l-9.21 17c-2 3.82-4 6-8.08 6a25.2 25.2 0 0 1-5.36-.62V24a20.79 20.79 0 0 0 4.66.6c2.28 0 3.47-.68 4.93-3.46l.11-.21H103L94.33 5h4.36l7.49 13.88Z"/></svg>