<svg fill="none" xmlns="http://www.w3.org/2000/svg" viewBox="0 0 31 25"><g clip-path="url(#clip0)"><path d="M5.64 24.86V23.2a1.02 1.02 0 00-.27-.75.94.94 0 00-.73-.3.95.95 0 00-.9.47.94.94 0 00-.35-.35.9.9 0 00-.49-.1.82.82 0 00-.74.38v-.32H1.6v2.63h.57v-1.45a.63.63 0 01.14-.5.6.6 0 01.48-.2c.36 0 .55.25.55.7v1.45h.56v-1.45a.64.64 0 01.15-.5.6.6 0 01.48-.2c.37 0 .55.25.55.7v1.45h.56zm8.27-2.63H13v-.8h-.56v.8h-.52v.52h.52v1.2c0 .63.24.99.89.99.25 0 .49-.08.7-.21l-.16-.5a1 1 0 01-.5.17c-.26 0-.36-.18-.36-.45v-1.2h.9v-.52zm4.72-.07a.73.73 0 00-.67.38v-.31h-.55v2.63h.55V23.4c0-.44.19-.68.54-.68.11 0 .23.02.34.06l.17-.55a1.15 1.15 0 00-.39-.07h.01zm-7.13.28c-.31-.2-.67-.3-1.04-.28-.65 0-1.07.3-1.07.84 0 .44.31.7.88.78l.26.04c.31.04.45.13.45.27 0 .21-.2.32-.57.32-.31.02-.61-.09-.85-.27l-.27.44c.32.24.7.36 1.1.35.74 0 1.16-.36 1.16-.87 0-.5-.34-.7-.89-.78l-.26-.04c-.24-.03-.44-.08-.44-.26s.19-.31.49-.31c.28 0 .56.08.8.23l.24-.46h.01zm14.82-.28a.73.73 0 00-.67.38v-.31h-.55v2.63h.55V23.4c0-.44.18-.68.53-.68.12 0 .24.02.35.06l.17-.55a1.15 1.15 0 00-.4-.07h.02zm-7.13 1.38a1.37 1.37 0 00.38 1 1.28 1.28 0 00.97.38c.33.02.66-.1.92-.32l-.27-.46c-.2.15-.42.23-.67.23a.8.8 0 01-.52-.27.87.87 0 010-1.14.8.8 0 01.52-.27c.25 0 .48.08.67.24l.27-.47a1.3 1.3 0 00-.92-.31 1.24 1.24 0 00-.97.37 1.33 1.33 0 00-.38 1.01v.01zm5.18 0v-1.31h-.55v.31a.97.97 0 00-.8-.38c-.36 0-.69.14-.94.4a1.4 1.4 0 000 1.95c.25.26.58.4.93.4a.93.93 0 00.8-.38v.31h.56v-1.3zm-2.07 0a.94.94 0 01.16-.44.75.75 0 01.9-.27.8.8 0 01.42 1.06.8.8 0 01-.28.36.75.75 0 01-.98-.11.8.8 0 01-.21-.6h-.01zm-6.67-1.38c-.36 0-.69.15-.94.41a1.4 1.4 0 00.04 1.96c.24.25.58.4.94.39.38.02.76-.1 1.05-.36l-.26-.42c-.2.17-.47.27-.74.27a.69.69 0 01-.5-.16.73.73 0 01-.27-.49h1.9v-.2c0-.84-.5-1.4-1.22-1.4zm0 .52a.61.61 0 01.45.17c.12.12.2.29.2.46h-1.34a.72.72 0 01.2-.47.64.64 0 01.48-.17h.01zm13.87.86v-2.37h-.54v1.37a.97.97 0 00-.8-.38c-.34 0-.68.14-.93.4a1.4 1.4 0 000 1.95c.25.26.59.4.93.4a.93.93 0 00.8-.38v.31h.54v-1.3zm.92.94a.26.26 0 01.26.2.26.26 0 01-.16.3.25.25 0 01-.1.02.26.26 0 01-.14-.04.27.27 0 01-.1-.12.26.26 0 01.06-.29.26.26 0 01.2-.07h-.02zm0 .47a.18.18 0 00.14-.06.21.21 0 000-.29.19.19 0 00-.21-.04.2.2 0 00-.07.04.2.2 0 000 .29l.06.04.1.02h-.02zm.01-.34a.1.1 0 01.07.03l.02.03v.03a.06.06 0 010 .05.1.1 0 01-.07.02l.09.1h-.07l-.07-.1h-.03v.1h-.04v-.26h.1zm-.05.06v.06h.1v-.02-.02-.01h-.05l-.05-.01zm-2.93-1.13a.77.77 0 01.15-.43.75.75 0 01.9-.27.8.8 0 01.42 1.06.79.79 0 01-.28.35.75.75 0 01-1.14-.38.8.8 0 01-.04-.33h-.01zm-18.69 0v-1.31H8.2v.31a.97.97 0 00-.8-.38c-.34 0-.68.14-.93.4a1.4 1.4 0 000 1.95c.25.26.59.4.94.4a.93.93 0 00.8-.38v.31h.55v-1.3zm-2.06 0a.85.85 0 01.4-.66.74.74 0 01.93.16.8.8 0 01-.49 1.34.75.75 0 01-.37-.06.77.77 0 01-.47-.77z" fill="#231F20" /><path d="M19.7 2.13h-8.4v15.62h8.4V2.12z" fill="#FF5F00" /><path d="M11.84 9.94a10.21 10.21 0 013.66-7.82A9.4 9.4 0 001.47 4.67a10.2 10.2 0 000 10.54 9.71 9.71 0 003.92 3.65 9.29 9.29 0 0010.11-1.12 9.9 9.9 0 01-3.66-7.8z" fill="#EB001B" /><path d="M31 9.94c0 1.86-.5 3.68-1.46 5.27a9.71 9.71 0 01-3.93 3.65 9.29 9.29 0 01-10.11-1.12 10.16 10.16 0 003.63-7.81A10.24 10.24 0 0015.5 2.1a9.4 9.4 0 0114.03 2.57A10.2 10.2 0 0131 9.94zm-.92 6.14v-.3h.13v-.08h-.32v.07h.14v.31h.05zm.62 0v-.38h-.1l-.1.28-.12-.28h-.08v.38h.06v-.28l.1.25h.07l.1-.25v.3h.07v-.02z" fill="#F79E1B" /></g><defs><clipPath id="clip0"><path fill="#fff" d="M0 0h31v25H0z" /></clipPath></defs></svg>