<svg xmlns="http://www.w3.org/2000/svg" data-name="logo" viewBox="0 0 300 110.86">
    <path fill="#10335a" d="M47.85 30.72H27.38c-7.41 0-8.27-3.71-8.27-6.51 0-5.8 3-8.17 10.42-8.17h39.66V0H27.27C8.67 0 0 7.63 0 24c0 15.39 8.24 22.56 25.94 22.56h18.23c7.18 0 9.48 1.71 9.48 7 0 4.42-1.67 6.82-10.51 6.82H3v16h42.6C64.14 76.46 72.78 69 72.78 53c0-15.83-7.22-22.28-24.93-22.28zM134.99 0l-21.63 52.37L92.21 0H71.47l33.33 76.47h17.91L154.66 0h-19.67zm51.67 15.74h26.87V0h-27.18c-24.61 0-36.08 12.57-36.08 39.56 0 13.94 3.87 23.79 11.82 30.11s15.43 6.79 23.86 6.79h27.58V60.73h-26.87c-11.11 0-15.57-4.12-16-15.09h42.88V29.91h-42.7c.96-9.66 6.02-14.17 15.82-14.17zM249.09 0l-32.38 76.47h19.61L242.88 59h29.92l6.76 17.52H300L267.4 0zM249 42.91l8.65-22.74 9 22.74z" /><rect width="297.51" height="19.82" x="2.49" y="91.04" fill="#00aecf" rx="3.64" />
</svg>