<svg width="52" height="11" viewBox="0 0 52 11" fill="none" xmlns="http://www.w3.org/2000/svg">
<path d="M6.00611 0.955154V2.45448H1.93347V4.9846H5.19706V6.43039H1.93347V10.4063H0V0.955154H6.00611Z" fill="#878787"/>
<path d="M10.2872 2.89625C10.9271 2.89625 11.4756 3.04351 11.9327 3.33802C12.3898 3.63253 12.7143 4.02967 12.9063 4.52945V2.98996H14.8261V10.4063H12.9063V8.85341C12.7143 9.35319 12.3898 9.7548 11.9327 10.0582C11.4756 10.3527 10.9271 10.5 10.2872 10.5C9.64729 10.5 9.07137 10.3483 8.55943 10.0448C8.04749 9.74141 7.64526 9.30411 7.35272 8.73293C7.06933 8.15283 6.92763 7.47456 6.92763 6.69813C6.92763 5.92169 7.06933 5.24788 7.35272 4.67671C7.64526 4.09661 8.04749 3.65484 8.55943 3.35141C9.07137 3.04797 9.64729 2.89625 10.2872 2.89625ZM10.8906 4.54284C10.2872 4.54284 9.8027 4.73472 9.43703 5.11847C9.07137 5.50223 8.88853 6.02878 8.88853 6.69813C8.88853 7.36747 9.07137 7.89402 9.43703 8.27778C9.8027 8.65261 10.2872 8.84003 10.8906 8.84003C11.4756 8.84003 11.9556 8.64815 12.3304 8.26439C12.7143 7.87171 12.9063 7.34962 12.9063 6.69813C12.9063 6.03771 12.7143 5.51562 12.3304 5.13186C11.9556 4.73918 11.4756 4.54284 10.8906 4.54284Z" fill="#878787"/>
<path d="M21.0212 10.4063L18.5118 7.16667V10.4063H16.5783V0.5H18.5118V6.06894L21.0074 2.98996H23.2974L20.1024 6.68474L23.3797 10.4063H21.0212Z" fill="#878787"/>
<path d="M28.3773 8.78648V10.4063H27.3626C26.5124 10.4063 25.8588 10.2055 25.4017 9.80388C24.9537 9.40228 24.7298 8.73293 24.7298 7.79585V4.583H23.6739V2.98996H24.7298V1.15596H26.6632V2.98996H28.3636V4.583H26.6632V7.82262C26.6632 8.17961 26.7364 8.4295 26.8826 8.57229C27.0289 8.71508 27.2757 8.78648 27.6231 8.78648H28.3773Z" fill="#878787"/>
<path d="M37.0363 2.98996V10.4063H35.1028V8.90696C34.9017 9.40674 34.568 9.79942 34.1018 10.085C33.6447 10.3617 33.1145 10.5 32.5111 10.5C31.6335 10.5 30.9342 10.2189 30.4131 9.65663C29.892 9.09438 29.6315 8.30901 29.6315 7.30054V2.98996H31.5512V7.08635C31.5512 7.67537 31.7066 8.13498 32.0175 8.46519C32.3283 8.78648 32.7488 8.94712 33.279 8.94712C33.8367 8.94712 34.28 8.77309 34.6091 8.42503C34.9382 8.07697 35.1028 7.5772 35.1028 6.9257V2.98996H37.0363Z" fill="#878787"/>
<path d="M40.7277 4.40897C41.0111 3.93597 41.3859 3.5656 41.8522 3.29786C42.3184 3.0212 42.8395 2.88286 43.4154 2.88286V4.90428H42.8532C41.4362 4.90428 40.7277 5.54685 40.7277 6.83199V10.4063H38.7943V2.98996H40.7277V4.40897Z" fill="#878787"/>
<path d="M47.4611 2.89625C48.1011 2.89625 48.6496 3.04351 49.1066 3.33802C49.5637 3.63253 49.8883 4.02967 50.0802 4.52945V2.98996H52V10.4063H50.0802V8.85341C49.8883 9.35319 49.5637 9.7548 49.1066 10.0582C48.6496 10.3527 48.1011 10.5 47.4611 10.5C46.8212 10.5 46.2453 10.3483 45.7334 10.0448C45.2214 9.74141 44.8192 9.30411 44.5266 8.73293C44.2433 8.15283 44.1016 7.47456 44.1016 6.69813C44.1016 5.92169 44.2433 5.24788 44.5266 4.67671C44.8192 4.09661 45.2214 3.65484 45.7334 3.35141C46.2453 3.04797 46.8212 2.89625 47.4611 2.89625ZM48.0645 4.54284C47.4611 4.54284 46.9766 4.73472 46.611 5.11847C46.2453 5.50223 46.0625 6.02878 46.0625 6.69813C46.0625 7.36747 46.2453 7.89402 46.611 8.27778C46.9766 8.65261 47.4611 8.84003 48.0645 8.84003C48.6496 8.84003 49.1295 8.64815 49.5043 8.26439C49.8883 7.87171 50.0802 7.34962 50.0802 6.69813C50.0802 6.03771 49.8883 5.51562 49.5043 5.13186C49.1295 4.73918 48.6496 4.54284 48.0645 4.54284Z" fill="#878787"/>
</svg>
