<svg xmlns="http://www.w3.org/2000/svg" fill="none" viewBox="0 0 88 18"><g clip-path="url(#a)"><path fill-rule="evenodd" clip-rule="evenodd" d="M50.13 3.49c-2.11 0-2.9 1.27-2.9 1.28l-.25.4V3.81h-3.54v10.03h3.54V8.71c0-1.4.56-2.03 1.79-2.03 1.36 0 1.47 1.2 1.47 2.33v4.84h3.58V7.67c0-2.74-1.28-4.18-3.69-4.18Zm23.85 3.36c.53 0 .94.08 1.16.14l.08-3.24a3.03 3.03 0 0 0-.76-.08c-2 0-2.56 1.22-2.58 1.27l-.25.56V3.82H68.1v10.03h3.54V9.02c0-1.44.8-2.17 2.35-2.17ZM39.35 1.5h-3.54v12.34h3.54V6.77h1.84l1.6-2.95h-3.44v-2.3Zm23.8 7.35c0-1.37-.89-2.3-2.21-2.3-1.34 0-2.24.93-2.24 2.3 0 1.3.94 2.23 2.24 2.23 1.3 0 2.2-.92 2.2-2.23Zm3.78-.11c0 3.74-3.04 5.42-6.05 5.42-2.73 0-5.92-1.38-5.92-5.26C54.96 5.17 58 3.5 61 3.5c2.95 0 5.92 1.62 5.92 5.26Zm16.84.07c0-1.3-.94-2.23-2.24-2.23-1.3 0-2.2.91-2.2 2.23 0 1.37.88 2.29 2.2 2.29 1.34 0 2.24-.92 2.24-2.29ZM87.19.67v13.18h-3.54v-1.27l-.23.32c-.01.01-.98 1.29-3.05 1.29-2.88 0-4.82-2.16-4.82-5.37 0-3.08 2.15-5.31 5.1-5.31 1.87 0 2.77.92 2.78.93l.22.23V1.36l3.54-.7ZM30.95 7.55l-.46-.07c-.91-.13-1.41-.2-1.41-.73 0-.62.86-.7 1.61-.7 1.4 0 2.65.37 3.06.51l.6-2.62c-.4-.1-1.83-.43-3.62-.43-3.43 0-5.4 1.28-5.4 3.5 0 1.79 1.13 2.66 3.91 3.02 1.27.17 1.84.25 1.84.84 0 .64-.8.72-1.5.72-1.62 0-3.14-.56-3.6-.75l-.7 2.72c.43.13 2.01.59 3.96.59 3.66 0 5.59-1.21 5.59-3.5 0-1.55-.65-2.6-3.87-3.1Zm-10.09 1.3c0-1.36-.89-2.28-2.21-2.28-1.34 0-2.23.92-2.23 2.29 0 1.3.94 2.23 2.23 2.23 1.3 0 2.21-.92 2.21-2.23Zm3.79-.1c0 3.74-3.04 5.42-6.06 5.42-2.73 0-5.92-1.38-5.92-5.26 0-3.74 3.04-5.42 6.05-5.42 2.95 0 5.93 1.62 5.93 5.26Zm-16.63.1c0-1.36-.9-2.28-2.22-2.28-1.33 0-2.23.92-2.23 2.29 0 1.3.94 2.23 2.23 2.23 1.3 0 2.22-.92 2.22-2.23Zm3.77 0c0 3.08-2.15 5.32-5.1 5.32-1.87 0-2.77-.92-2.78-.93l-.22-.23v3.8H.15V3.82h3.54V5.1l.23-.31c0-.01.98-1.3 3.04-1.3 2.89 0 4.83 2.17 4.83 5.38Z" fill="#00A0D6"/></g><defs><clipPath id="a"><path fill="#fff" transform="translate(.15 .65)" d="M0 0h87.51v16.71H0z"/></clipPath></defs></svg>