<svg width="80" height="16" fill="none" xmlns="http://www.w3.org/2000/svg"><g clip-path="url(#clip0)" fill-rule="evenodd" clip-rule="evenodd"><path d="M.067 3.526c1.088-.003 2.176-.003 3.264-.014.186-.002.225.073.216.233-.01.185-.002.372-.002.569.04-.008.08-.003.099-.02 2.3-2.012 5.804-1.209 6.9 1.634.78 2.026.634 3.992-.85 5.703-1.565 1.804-4.541 1.89-6.026.725-.023-.018-.057-.023-.134-.053V15.5c-1.053 0-2.107-.008-3.16.006-.236.003-.315-.031-.314-.294.01-3.895.007-7.79.007-11.686zm3.39 4.616c-.014 1.12.77 1.927 1.893 1.947 1.07.019 1.9-.765 1.917-1.813.02-1.211-.717-2.024-1.851-2.041-1.148-.018-1.943.757-1.959 1.907zM80.067 12.868c-.975-.063-1.952-.01-2.927-.027-.1-.002-.201-.01-.3.002-.216.027-.27-.073-.254-.266.014-.183.003-.368.003-.598-.198.162-.357.308-.53.433-1.63 1.172-4.216.897-5.6-.593-1.73-1.862-1.722-5.25-.021-7.13 1.541-1.704 4.491-1.917 6.034-.705.023.018.058.02.117.04 0-.826.013-1.633-.008-2.439-.006-.246.09-.315.306-.355.926-.17 1.85-.353 2.774-.53.053-.011.112-.007.14-.069.227-.05.273.038.272.264-.009 3.99-.006 7.982-.006 11.973zm-7.2-4.715c-.001 1.145.768 1.943 1.88 1.948 1.135.007 1.925-.786 1.93-1.936.004-1.12-.787-1.904-1.922-1.903-1.122 0-1.887.767-1.888 1.89zM55.824 3.193c1.06.016 1.952.163 2.801.522 2 .845 3.052 2.646 2.878 4.79-.208 2.565-1.976 4.054-4.308 4.487-1.385.258-2.745.152-4.047-.396-2.06-.864-2.967-2.59-2.859-4.668.154-2.962 2.343-4.354 4.682-4.662.33-.044.663-.057.853-.073zM53.973 8.17c0 1.116.82 1.936 1.922 1.92 1.117-.016 1.893-.797 1.894-1.907 0-1.157-.782-1.952-1.919-1.948-1.119.005-1.898.799-1.897 1.935zM17.224 3.195c1.454.036 2.813.36 3.958 1.305.954.786 1.443 1.814 1.55 3.023.122 1.38-.136 2.665-1.073 3.748-.804.929-1.854 1.44-3.049 1.687-1.416.293-2.805.205-4.148-.338-2.23-.9-3.112-2.827-2.896-4.988.242-2.417 1.964-3.861 4.234-4.298.47-.09.944-.14 1.424-.139zm-.058 3.04c-1.136-.01-1.93.774-1.953 1.927-.022 1.082.82 1.924 1.925 1.925 1.1 0 1.903-.794 1.916-1.895.012-1.122-.785-1.948-1.888-1.957z" fill="#0498BA"/><path d="M43.285 4.27c1.146-1.104 2.494-1.282 3.94-.9 1.31.348 1.925 1.32 2.17 2.57.064.335.084.673.084 1.014-.002 1.853-.005 3.705.004 5.558.001.247-.049.34-.324.336a86.633 86.633 0 00-2.866-.001c-.258.004-.34-.062-.338-.328.007-1.545-.005-3.09-.014-4.636-.001-.152-.019-.306-.047-.456-.162-.833-.5-1.11-1.306-1.08-.776.028-1.25.443-1.318 1.207-.078.864-.022 1.731-.03 2.597-.007.8-.01 1.6.004 2.4.004.234-.073.298-.303.295-.978-.011-1.956-.01-2.933 0-.214.002-.28-.053-.28-.274.008-2.927.008-5.854 0-8.781-.002-.245.085-.283.304-.28.955.01 1.91.015 2.866-.002.279-.005.379.074.346.347-.015.124-.034.259.041.414zM28.162 3.203c1.16.04 2.22.128 3.262.37.22.05.262.117.207.33a43.469 43.469 0 00-.488 2.077c-.053.261-.15.269-.379.201-1.08-.318-2.177-.523-3.313-.36a1.873 1.873 0 00-.258.063c-.208.06-.371.18-.369.408.003.236.188.338.393.384.747.167 1.517.21 2.26.4.398.101.789.22 1.16.396 1.03.483 1.489 1.273 1.455 2.397-.04 1.33-.73 2.185-1.929 2.694-.966.41-1.993.514-3.027.536a13.094 13.094 0 01-3.814-.489c-.204-.057-.259-.12-.198-.335.204-.727.391-1.46.566-2.194.056-.238.142-.255.358-.172 1.15.436 2.335.692 3.578.6.168-.012.331-.041.484-.109.172-.075.293-.191.29-.399-.001-.209-.125-.319-.303-.386-.387-.147-.798-.179-1.204-.232-.706-.091-1.403-.217-2.066-.48-1.917-.76-2.316-3.195-.744-4.537.863-.737 1.917-.976 3.01-1.095.386-.042.775-.05 1.069-.068zM32.733 7.114c0-1.798.006-3.596-.006-5.395-.002-.25.066-.308.313-.304a86.59 86.59 0 002.9-.001c.265-.005.311.086.304.318-.016.504.006 1.01-.01 1.513-.008.226.077.276.288.274.878-.01 1.756.001 2.633-.007.232-.003.304.033.175.264-.456.814-.902 1.633-1.343 2.456-.08.148-.176.197-.341.192-.367-.01-.734.013-1.1-.009-.252-.015-.314.064-.313.31.01 1.897.006 3.793.006 5.69 0 .426 0 .426-.427.426-.911 0-1.823-.011-2.733.006-.274.006-.355-.06-.353-.338.013-1.798.007-3.597.007-5.395z" fill="#0598BA"/><path d="M65.811 4.514c.798-1.06 1.858-1.201 3-1.114.208.015.309.094.3.327-.035.886-.054 1.773-.07 2.66-.003.21-.07.263-.281.21-.4-.103-.81-.134-1.222-.1-1.152.097-1.72.697-1.725 1.839-.006 1.38-.01 2.761.004 4.142.003.275-.047.378-.357.37a82.983 82.983 0 00-2.832-.004c-.214.003-.312-.03-.311-.28.008-2.925.007-5.85.001-8.776 0-.212.054-.28.276-.278.988.012 1.976.011 2.964 0 .212-.002.27.067.256.263-.015.217-.003.436-.003.74z" fill="#0498BA"/></g><defs><clipPath id="clip0"><path d="M0 .5h80v15H0V.5z" fill="#fff"/></clipPath></defs></svg>