<svg version="1.1" id="Layer_1" xmlns="http://www.w3.org/2000/svg" xmlns:xlink="http://www.w3.org/1999/xlink" x="0px" y="0px" width="120px" height="56px" viewBox="0 0 120 56" enable-background="new 0 0 120 56" xml:space="preserve">
<g>
	<path fill="#FF8000" d="M41.4,25.3c0.5-4.5,3.8-7.7,8.4-7.7s8,3.2,8.4,7.7h7.3C65,17,58.3,10.6,49.9,10.6S34.7,17,34.2,25.3H41.4z    M24.5,27.1c-0.2,4.9-3.8,8.3-8.6,8.3S7.5,32,7.4,27.1H0v28.6h7.3V39h0.1c2,2,4.8,3.4,8.8,3.4c8.6,0,15.3-6.5,15.5-15.3   C31.7,27.1,24.5,27.1,24.5,27.1z M7.4,25.3c0.4-4.6,3.9-7.7,8.5-7.7s8.1,3.2,8.6,7.7h7.3c-0.5-8.4-6.8-14.7-15.2-14.7   c-4,0-7.2,1.5-9.1,3.5H7.3v-2.9H0v14.1H7.4z M108.9,41.8h7.3V27.1h-7.3V41.8z M93,41.8h7.3V27.1H93V41.8z M84.5,27.1H70.3   c1.5,1,3.9,2.2,5.4,2.8c3,1.1,4.1,1.8,4.1,3.2c0,1.4-1.6,2.2-3.6,2.2c-2.4,0-4.1-0.9-5.8-2.4l-4.8,4.8c2.8,2.8,5.7,4.7,10.7,4.7   c5.3,0,10.8-3.8,10.8-9.5C87.1,30.4,86,28.5,84.5,27.1z M58.3,27.1c-0.2,4.9-3.6,8.3-8.5,8.3c-4.8,0-8.3-3.5-8.5-8.3H34   c0.2,8.5,7.1,15.3,15.7,15.3s15.5-6.8,15.7-15.3C65.4,27.1,58.3,27.1,58.3,27.1z M116.2,11.2h-7.3v14.1h7.3V11.2z M93,25.3h7.3   v-7.7h6.7v-6.4h-6.7V0.3H93v10.9h-5.5v6.4H93V25.3z M82.5,25.3c-1.4-0.9-3.1-1.6-4.6-2.1c-2.8-1-4.1-1.7-4.1-3.3   c0-1.3,1.3-2.2,3-2.2c1.8,0,3.6,0.7,5.1,2.1l4.7-5.1c-2.8-2.6-5.7-4-9.8-4c-4.2,0-9.9,3.3-9.9,9.5c0,2.1,0.7,3.8,1.8,5.1H82.5z"/>
	<path fill="#FF8000" d="M115.1,2c-0.5,0-1.6,0.9-1.6,4.4c1.1-0.9,2.2-2.7,2.2-3.7C115.6,2.2,115.5,2,115.1,2z M110.4,4.3   c-0.4,0-0.6,0.3-0.6,0.7c0,1,1,1.6,2.1,1.8c0-0.1,0-0.2,0-0.3C111.9,5.3,111.3,4.3,110.4,4.3z M107.8,7c0.9,0.7,1.6,1.4,2.4,1.4   c0.4,0,0.6-0.1,0.8-0.2c-1.7-0.5-2.7-1.9-2.7-3.2c0-1.2,0.8-2.1,2.1-2.1c0.8,0,1.4,0.4,1.9,0.8c0.5-2,1.7-3.1,3-3.1   c1.2,0,1.8,0.9,1.8,2.2c0,1.6-1.5,4.2-3.3,5.2c0.2,0.3,0.5,0.5,1,0.5c1.6,0,3-1.4,3.9-2.5c0.2-0.2,0.4-0.3,0.6-0.3   c0.4,0,0.7,0.3,0.7,0.7c0,0.2-0.1,0.4-0.2,0.5c-0.9,1-2.7,3-5,3c-1,0-1.8-0.5-2.2-1.1c-0.6,0.7-1.4,1.1-2.4,1.1s-2-0.7-2.9-1.4   c-0.4-0.3-0.9-0.7-1.2-0.9c-0.3-0.3-0.6-0.4-0.7-0.4c-0.6,0-0.8-0.4-0.8-0.8s0.3-0.7,0.8-0.7c0.4,0,0.8,0.2,1.2,0.4   C107,6.3,107.4,6.6,107.8,7z"/>
</g>
</svg>