<svg xmlns="http://www.w3.org/2000/svg" viewBox="0 0 868.71 147.42"><path d="M851.23 92.48a22 22 0 00-7.27-7.75c10.57-3.5 15.37-9.63 15.37-20.36 0-16.27-10-24.22-30.33-24.22h-30.92v81.82h20.8V89.69h2.64c4.69 0 6.37 1.25 10 7.52l14.46 24.76h22.7zm-32.35-36.54h9.45c8.09 0 10.68 2.32 10.68 9.53s-2.87 9.83-10.68 9.83h-9.47V55.94m-72.33 49.44V88.24h27.7V72.43h-27.68v-15.7h35.07V40.15h-55.85v81.82h57.56l1.47-16.59h-38.2m-63.46-26.69l30.44-38.54h-21.61s-23.86 31.4-26.55 34.95V40.15h-20.78v81.82h20.78v-34.6c2.69 3.55 26.13 34.6 26.13 34.6h24.69l-33.1-43.28m-73.69-38.54v44.72l-33.49-44.72h-17.44v81.82h17.63V72.51c2.78 3.68 37.08 49.46 37.08 49.46h13.85V40.15h-17.63m-102.47 65.23V88.24h27.7V72.43h-27.7v-15.7h35.07V40.15h-55.86v81.82h57.54l1.44-16.59h-38.19m-59.12-65.23v31.74h-28.73V40.15h-20.8v81.82h20.8V88.24h28.73v33.73h20.79V40.15h-20.79m-64.53 63.31c-7.69 2.9-12.68 3.91-19.16 3.91-13.46 0-18.7-7.29-18.7-26 0-19.56 5.1-26.82 18.81-26.82a47.69 47.69 0 0118.59 3.79l1.15.46V41.84l-.55-.22a55.59 55.59 0 00-19.73-3.35c-11.21 0-20.74 3.19-27.59 9.25-8.56 7.55-12.54 18.33-12.54 33.93 0 13.22 2.71 22.69 8.54 29.75 6.79 8.13 17.49 12.41 30.94 12.41A48.57 48.57 0 00384 119.1l.48-.21v-15.85l-1.12.42m-89.21-30.52l-1.3-.55c-8.37-3.65-8.7-3.78-10.69-5.2-2.74-2-3.65-3.48-3.65-6 0-4.48 3.68-6.76 11-6.76 6.45 0 11.17 1.11 18.67 4.45l1.17.51V42.27l-.55-.21a55.21 55.21 0 00-20.16-3.79c-18.61 0-29.27 9.06-29.27 24.88 0 11.9 5.31 18.74 19 24.37 14.5 6.11 15.88 7.64 15.88 12.11 0 5.2-4.33 7.85-12.86 7.85-7.35 0-12.92-1.48-21.22-5.63l-1.23-.61v17.11l.49.24a51.35 51.35 0 0023.27 5c20.35 0 31.57-9.06 31.57-25.53 0-12.48-5.07-18.82-20.07-25.14M63.44 121.96h-34.9v-96.5h34.9c24.59 0 37.76 15.63 37.76 47.8 0 27.93-8.77 48.48-37.76 48.7zM78.6 75.27c0-19.44-2-34.61-22.62-34.61h-4.65v65.65h8.13c12.07 0 19.11-9.81 19.11-31M148.16 122h-36.83V25.46h38.64c18.23 0 28.1 7.6 28.1 25.69 0 9.39-7.69 16.08-16 20.33 11.64 3.34 19.54 10.5 19.54 22.55-.05 19.67-16.28 27.93-33.42 27.93zm-14.27-58.3h7.9c7.47 0 12.95-3.34 12.95-11.62 0-9.16-7-11.61-14.49-11.61h-6.36zm23.48 29.93c0-9.83-6.14-12.06-15.13-12.06h-8.35v24.78h8.13c8.12 0 15.35-2.67 15.35-12.72M186.83 0h-166A20.83 20.83 0 00-.02 21v105.2a21 21 0 0020.85 21.22h166c11.2 0 20.65-9.38 20.65-21.22V20.99A20.79 20.79 0 00186.83 0zm5.5 126.2c0 3.35-2.2 6-5.49 6h-166a5.78 5.78 0 01-5.7-6V20.99a5.77 5.77 0 015.7-6h166c3.29 0 5.49 2.68 5.49 6V126.2" fill="#fff"/></svg>