<svg version="1.1" id="Layer_1" x="0" y="0" xml:space="preserve" width="120.395" height="30.968" xmlns="http://www.w3.org/2000/svg"><style id="style2">.st0{fill:#ff5b24}.st1{fill:none}</style><path class="st0" d="m6.65.92 5.1 14.9 5-14.9h5.9l-8.8 22.1h-4.4L.65.92Z" id="path4"/><path class="st1" d="m120.05 17.02 14.9-5.1-14.9-5v-6l22.1 8.8v4.4l-22.1 8.8zm-113.4 5.9 5.1 14.9 5-14.9h5.9l-8.8 22.1h-4.4l-8.8-22.1zm10.1-21.9-5.1-14.9-5 14.9h-6l8.9-22.1h4.4l8.8 22.1z" id="path6"/><path class="st1" d="m.75 6.92-14.9 5.1 14.9 5.1v5.9l-22.1-8.8v-4.4L.75.92Z" id="path8"/><path class="st0" d="M35.95 19.52c3.7 0 5.8-1.8 7.8-4.4 1.1-1.4 2.5-1.7 3.5-.9 1 .8 1.1 2.3 0 3.7-2.9 3.8-6.6 6.1-11.3 6.1-5.1 0-9.6-2.8-12.7-7.7-.9-1.3-.7-2.7.3-3.4 1-.7 2.5-.4 3.4 1 2.2 3.3 5.2 5.6 9 5.6zm6.9-12.3c0 1.8-1.4 3-3 3s-3-1.2-3-3 1.4-3 3-3 3 1.3 3 3zm14.1-6.3v3c1.5-2.1 3.8-3.6 7.2-3.6 4.3 0 9.3 3.6 9.3 11.3 0 8.1-4.8 12-9.8 12-2.6 0-5-1-6.8-3.5v10.6h-5.4V.92Zm0 11c0 4.5 2.6 6.9 5.5 6.9 2.8 0 5.6-2.2 5.6-6.9 0-4.6-2.8-6.8-5.6-6.8s-5.5 2.1-5.5 6.8zm26-11v3c1.5-2.1 3.8-3.6 7.2-3.6 4.3 0 9.3 3.6 9.3 11.3 0 8.1-4.8 12-9.8 12-2.6 0-5-1-6.8-3.5v10.6h-5.4V.92Zm0 11c0 4.5 2.6 6.9 5.5 6.9 2.8 0 5.6-2.2 5.6-6.9 0-4.6-2.8-6.8-5.6-6.8-2.9 0-5.5 2.1-5.5 6.8zm28-11.6c4.5 0 7.7 2.1 9.1 7.3l-4.9.8c-.1-2.6-1.7-3.5-4.1-3.5-1.8 0-3.2.8-3.2 2.1 0 1 .7 2 2.8 2.4l3.7.7c3.6.7 5.6 3.1 5.6 6.3 0 4.8-4.3 7.2-8.4 7.2-4.3 0-9.1-2.2-9.8-7.6l4.9-.8c.3 2.8 2 3.8 4.8 3.8 2.1 0 3.5-.8 3.5-2.1 0-1.2-.7-2.1-3-2.5l-3.4-.6c-3.6-.7-5.8-3.2-5.8-6.4.1-5 4.6-7.1 8.2-7.1z" id="path10"/></svg>