<svg width="33" height="22" fill="none" xmlns="http://www.w3.org/2000/svg"><g clip-path="url(#clip0)"><path d="M32.403.89H.381v20.458h32.022V.889z" fill="#fff"/><path d="M31.692 17.695h-30.6v2.922h30.6v-2.922z" fill="#FCB316"/><path d="M31.692 1.62h-30.6v2.923h30.6V1.62zM13.13 7.59l-3.172 7.085h-2.07L6.332 9.02c-.088-.344-.176-.481-.47-.619-.47-.234-1.247-.468-1.923-.605l.044-.207h3.333c.426 0 .807.262.895.716l.823 4.114 2.025-4.816h2.07v-.014zm8.089 4.774c.015-1.872-2.76-1.968-2.73-2.807 0-.248.264-.523.821-.592a4.046 4.046 0 011.924.317l.337-1.5a5.417 5.417 0 00-1.835-.317c-1.938 0-3.288.964-3.303 2.34-.015 1.018.969 1.582 1.703 1.926.763.344 1.013.564 1.013.88 0 .482-.602.688-1.175.688-.983.014-1.556-.247-2.011-.454l-.352 1.555c.455.193 1.306.372 2.172.372 2.085.014 3.436-.936 3.436-2.408zm5.109 2.311h1.806L26.548 7.59h-1.673a.9.9 0 00-.837.523L21.1 14.675h2.056l.41-1.059h2.511l.25 1.06zm-2.188-2.504l1.028-2.655.587 2.655H24.14zM15.92 7.59l-1.615 7.086h-1.953l1.615-7.086h1.953z" fill="#10357F"/></g><defs><clipPath id="clip0"><path d="M.381.89h32.022v20.458H.381V.889z" fill="#fff"/></clipPath></defs></svg>