<svg width="17" height="18" viewBox="0 0 17 18" fill="none" xmlns="http://www.w3.org/2000/svg">
<path d="M8.22 17.22C3.68562 17.22 0 13.5344 0 9.00003C0 4.46565 3.68562 0.780029 8.22 0.780029C12.7544 0.780029 16.44 4.46565 16.44 9.00003C16.44 13.5344 12.7544 17.22 8.22 17.22ZM8.22 1.92701C4.32028 1.92701 1.14698 5.10031 1.14698 9.00003C1.14698 12.8998 4.32028 16.0731 8.22 16.0731C12.1197 16.0731 15.293 12.8998 15.293 9.00003C15.293 5.10031 12.1197 1.92701 8.22 1.92701Z" fill="#292D32"/>
<path d="M7.13353 11.7375C6.9806 11.7375 6.83531 11.6763 6.72826 11.5693L4.56426 9.40529C4.34251 9.18354 4.34251 8.81651 4.56426 8.59476C4.78601 8.37301 5.15304 8.37301 5.37479 8.59476L7.13353 10.3535L11.0638 6.42315C11.2856 6.2014 11.6526 6.2014 11.8744 6.42315C12.0961 6.6449 12.0961 7.01193 11.8744 7.23368L7.53879 11.5693C7.43174 11.6763 7.28646 11.7375 7.13353 11.7375Z" fill="#292D32"/>
</svg>
