<svg xmlns="http://www.w3.org/2000/svg" viewBox="0 0 25 25" enable-background="new 0 0 25 25"><g fill="#fff"><path d="m12.5 2.4c3.3 0 3.7 0 5 .1 1.2.1 1.9.3 2.3.4.6.2 1 .5 1.4.9.4.4.7.8.9 1.4.2.4.4 1.1.4 2.3.1 1.3.1 1.7.1 5s0 3.7-.1 5c-.1 1.2-.3 1.9-.4 2.3-.2.6-.5 1-.9 1.4-.4.4-.8.7-1.4.9-.4.2-1.1.4-2.3.4-1.3.1-1.7.1-5 .1s-3.7 0-5-.1c-1.2-.1-1.9-.3-2.3-.4-.6-.2-1-.5-1.4-.9-.4-.4-.7-.8-.9-1.4-.2-.4-.4-1.1-.4-2.3-.1-1.3-.1-1.7-.1-5s0-3.7.1-5c.1-1.2.3-1.9.4-2.3.2-.6.5-1 .9-1.4.4-.4.8-.7 1.4-.9.4-.2 1.1-.4 2.3-.4 1.3-.1 1.7-.1 5-.1m0-2.2c-3.4 0-3.8 0-5.1.1-1.3.1-2.2.3-3 .6-.8.2-1.5.6-2.2 1.3-.7.7-1.1 1.4-1.4 2.2-.3.8-.5 1.7-.6 3-.1 1.3-.1 1.7-.1 5.1 0 3.4 0 3.8.1 5.1.1 1.3.3 2.2.6 3 .3.8.7 1.5 1.4 2.2.7.7 1.4 1.1 2.2 1.4.8.3 1.7.5 3 .6 1.3.1 1.7.1 5.1.1s3.8 0 5.1-.1c1.3-.1 2.2-.3 3-.6.8-.3 1.5-.7 2.2-1.4.7-.7 1.1-1.4 1.4-2.2.3-.8.5-1.7.6-3 .1-1.3.1-1.7.1-5.1s0-3.8-.1-5.1c-.1-1.3-.3-2.2-.6-3-.3-.8-.7-1.5-1.4-2.2-.7-.7-1.4-1.1-2.2-1.4-.8-.3-1.7-.5-3-.6-1.3 0-1.7 0-5.1 0z"/><path d="m12.5 6.2c-3.5 0-6.3 2.8-6.3 6.3s2.8 6.3 6.3 6.3 6.3-2.8 6.3-6.3-2.8-6.3-6.3-6.3m0 10.4c-2.3 0-4.1-1.8-4.1-4.1s1.8-4.1 4.1-4.1 4.1 1.8 4.1 4.1-1.8 4.1-4.1 4.1"/><circle cx="19.1" cy="5.9" r="1.5"/></g><style xmlns="" id="autoconsent-prehide"/></svg>