<svg fill="none" xmlns="http://www.w3.org/2000/svg" viewBox="0 0 22 22"><g clip-path="url(#a)"><path d="M17.42 0H4.58C2.05 0 0 2 0 4.48v12.54a4.53 4.53 0 0 0 4.58 4.48h12.84c2.53 0 4.58-2 4.58-4.48V4.48A4.53 4.53 0 0 0 17.42 0ZM7.33 17.02H4.58V7.17h2.75v9.85ZM5.96 6.03c-.89 0-1.6-.7-1.6-1.58 0-.87.71-1.58 1.6-1.58.88 0 1.6.7 1.6 1.58a1.6 1.6 0 0 1-1.6 1.58Zm12.37 11h-2.75V12c0-3.02-3.66-2.79-3.66 0v5.02H9.17V7.17h2.75v1.58c1.28-2.32 6.41-2.49 6.41 2.22v6.05Z" fill="#fff"/></g><defs><clipPath id="a"><path fill="#fff" d="M0 0h22v21.5H0z"/></clipPath></defs><style xmlns="" id="autoconsent-prehide"/></svg>