<svg width="22" height="21" viewBox="0 0 22 21" fill="none" xmlns="http://www.w3.org/2000/svg">
<path d="M11.5984 12.278C14.7641 12.278 17.3305 10.7055 17.3305 8.7656C17.3305 6.82574 14.7641 5.25317 11.5984 5.25317C8.43258 5.25317 5.86621 6.82574 5.86621 8.7656C5.86621 10.7055 8.43258 12.278 11.5984 12.278Z" stroke="#202020" stroke-width="0.5" stroke-miterlimit="10"/>
<path d="M17.326 8.76562V12.278C17.326 14.2162 14.7591 15.7905 11.5939 15.7905M5.86621 12.2824V8.77001V12.2824Z" stroke="#202020" stroke-width="0.5" stroke-miterlimit="10"/>
<path d="M11.5984 10.3049C12.9865 10.3049 14.1117 9.61577 14.1117 8.76571C14.1117 7.91566 12.9865 7.22656 11.5984 7.22656C10.2102 7.22656 9.08496 7.91566 9.08496 8.76571C9.08496 9.61577 10.2102 10.3049 11.5984 10.3049Z" stroke="#202020" stroke-width="0.5" stroke-miterlimit="10"/>
<path d="M13.433 15.6107V14.2163M11.5981 15.7949H2.31689V12.2825H11.5981V15.7949ZM3.34368 15.7949V14.2163V15.7949ZM4.60261 15.8256V14.7688V15.8256ZM7.12939 15.8256V14.7688V15.8256ZM9.65172 15.8256V14.7688V15.8256ZM12.174 15.8256V14.7688V15.8256ZM5.866 15.7949V14.2163V15.7949ZM8.38832 15.7949V14.2163V15.7949ZM10.9106 15.7949V14.2163V15.7949Z" stroke="#202020" stroke-width="0.5" stroke-miterlimit="10"/>
</svg>
