<svg xmlns="http://www.w3.org/2000/svg" width="28" height="30" viewBox="0 0 28 30" fill="none">
<path fill-rule="evenodd" clip-rule="evenodd" d="M13.5757 0.575692C13.8101 0.341377 14.1899 0.341377 14.4243 0.575692L18.2485 4.39996H23C23.3314 4.39996 23.6 4.66859 23.6 4.99996V9.75145L27.4215 13.5729C27.5317 13.6817 27.6 13.8329 27.6 14V21.5V22V27C27.6 28.4359 26.436 29.6 25 29.6H3.00002C1.56408 29.6 0.400024 28.4359 0.400024 27V21.5V14C0.400024 13.8526 0.453152 13.7176 0.5413 13.6132C0.552229 13.6002 0.563747 13.5877 0.575838 13.5756L4.40002 9.7514V4.99996C4.40002 4.66859 4.66865 4.39996 5.00002 4.39996H9.75146L13.5757 0.575692ZM11.4485 4.39996H16.5515L14 1.84848L11.4485 4.39996ZM4.40002 11.4485L2.44852 13.4H4.40002V11.4485ZM4.40002 14.6H2.69797L4.40002 15.9747V14.6ZM5.60002 16.944V14V5.59996H22.4V14V16.9439L14 23.7287L5.60002 16.944ZM23.6 15.9747L25.302 14.6H23.6V15.9747ZM23.6 13.4H25.5515L23.6 11.4485V13.4ZM1.60002 21.5V15.2557L13.623 24.9667C13.8429 25.1444 14.1571 25.1444 14.377 24.9667L26.4 15.2556V21.5V22V27C26.4 27.7732 25.7732 28.4 25 28.4H3.00002C2.22683 28.4 1.60002 27.7732 1.60002 27V21.5Z" fill="#202020"/>
<path fill-rule="evenodd" clip-rule="evenodd" d="M8.66553 12.7343C8.66553 10.9715 10.0424 9.49999 11.7823 9.49999C12.7441 9.49999 13.597 9.95264 14.1655 10.653C14.734 9.95265 15.5869 9.49999 16.5491 9.49999C18.2883 9.49999 19.6655 10.9715 19.6655 12.7343C19.6655 13.1159 19.6013 13.4832 19.4835 13.8246C19.3281 14.2731 19.0797 14.6767 18.7619 15.0093L18.7605 15.0108L14.6215 19.3083C14.5012 19.4332 14.3384 19.5 14.1718 19.5C14.0048 19.5 13.8422 19.4327 13.7225 19.308C13.7222 19.3077 13.722 19.3074 13.7217 19.3072L9.74496 15.1797C9.62543 15.0726 9.51511 14.9569 9.41362 14.8336C9.16493 14.5321 8.96936 14.1832 8.84045 13.802C8.7268 13.4666 8.66553 13.1074 8.66553 12.7343ZM11.7823 10.5C10.6357 10.5 9.66553 11.4819 9.66553 12.7343C9.66553 12.9973 9.70863 13.2481 9.78757 13.4812C9.87748 13.7471 10.0135 13.9894 10.1852 14.1975C10.2587 14.2868 10.3382 14.3695 10.423 14.4445L10.438 14.4578L14.1721 18.3334L18.0388 14.3186C18.0391 14.3183 18.0386 14.3188 18.0388 14.3186C18.2573 14.0896 18.43 13.8102 18.5382 13.4983C18.6203 13.2603 18.6655 13.0032 18.6655 12.7343C18.6655 11.4819 17.695 10.5 16.5491 10.5C15.7068 10.5 14.9634 11.0259 14.624 11.8067L14.1653 12.8617L13.7069 11.8066C13.3676 11.0259 12.6241 10.5 11.7823 10.5Z" fill="#202020"/>
</svg>