<svg class="mobile-only footer__title-icon" fill="none" xmlns="http://www.w3.org/2000/svg" viewBox="0 0 13 16"><circle cx="6.5" cy="6.74" r=".5" fill="#000"></circle><circle cx="8.5" cy="6.74" r=".5" fill="#000"></circle><circle cx="10.5" cy="6.74" r=".5" fill="#000"></circle><path d="m11.9 9.4.08.42-.4-.12-1.68-.5a5.3 5.3 0 0 1-4.01-.55c-.68-.45-1.14-1.1-1.14-1.86 0-.75.46-1.4 1.14-1.86.68-.45 1.6-.72 2.61-.72 1 0 1.93.27 2.61.72.68.46 1.14 1.1 1.14 1.86 0 .54-.23 1.02-.6 1.42l.24 1.2Z" stroke="#000" stroke-width=".5"></path><path fill-rule="evenodd" clip-rule="evenodd" d="m1.01 8.86-.16.83.8-.25 2.36-.75c.36.1.75.18 1.15.22a3.54 3.54 0 0 1-.6-.6L4 8.17l-1.96.62-.54.17.11-.56.29-1.44a2.83 2.83 0 0 1-.9-2c0-1.93 2.24-3.5 5-3.5 2.24 0 4.13 1.03 4.77 2.44.23.1.44.21.64.33a3.82 3.82 0 0 0-1.59-2.16C8.82 1.37 7.47.96 6 .96c-1.47 0-2.82.42-3.82 1.11C1.18 2.77.5 3.78.5 4.96c0 .8.33 1.55.86 2.15L1 8.86Z" fill="#000"></path><ellipse cx="4" cy="11.08" rx="1" ry="1.16" fill="#000"></ellipse><ellipse cx="8.5" cy="12.08" rx="1" ry="1.16" fill="#000"></ellipse><path fill-rule="evenodd" clip-rule="evenodd" d="M3.03 12.37c-.45.27-.74.72-.74 1.23V15h3.42v-1.4c0-.51-.3-.96-.74-1.23a1.55 1.55 0 0 1-1.94 0ZM7.53 13.37c-.45.27-.74.72-.74 1.23V16h3.42v-1.4c0-.51-.3-.96-.74-1.23a1.55 1.55 0 0 1-1.94 0Z" fill="#000"></path></svg>