<svg width="25" height="27" viewBox="0 0 25 27" fill="none" xmlns="http://www.w3.org/2000/svg">
<path d="M20.5479 5.68332C19.0923 4.75254 18.0411 3.26368 17.7133 1.52762C17.6425 1.15208 17.6037 0.766079 17.6037 0.371521H12.9566L12.9489 18.6296C12.8703 20.6746 11.1548 22.3156 9.05045 22.3156C8.39683 22.3156 7.78103 22.1549 7.23894 21.8754C5.99571 21.2336 5.14427 19.9559 5.14427 18.486C5.14427 16.3744 6.89662 14.6564 9.05045 14.6564C9.45289 14.6564 9.83789 14.7211 10.2035 14.8333V10.1822C9.82625 10.1318 9.44223 10.1005 9.05045 10.1005C4.33452 10.1005 0.497192 13.8625 0.497192 18.486C0.497192 21.323 1.9431 23.8339 4.14833 25.3513C5.53799 26.3078 7.2273 26.8706 9.05045 26.8706C13.7664 26.8706 17.6037 23.1095 17.6037 18.4851V9.22673C19.4259 10.5093 21.6592 11.2651 24.0691 11.2651V6.70917C22.7715 6.70917 21.5622 6.33077 20.5488 5.68236L20.5479 5.68332Z" fill="white"/>
</svg>
