<svg width="18" height="21" viewBox="0 0 18 21" fill="none" xmlns="http://www.w3.org/2000/svg">
<path d="M0.840393 19.5148C6.06945 21.4162 17.716 20.225 17.4783 18.7989C17.1222 16.6625 11.2985 16.4221 11.2985 12.6191" stroke="#5A5656" stroke-linecap="round" stroke-linejoin="round"/>
<path d="M10.3477 4.5376C8.06598 6.81937 5.59406 6.43907 4.64332 5.9637C4.80178 6.59753 4.92854 7.96025 4.16795 8.34055C4.16795 10.242 5.59406 14.045 8.44627 14.045C11.2985 14.045 13.2 9.76666 13.2 7.86518C12.5661 7.86518 11.2985 7.67503 11.2985 6.91444M14.6261 14.5203C14.6261 12.7773 14.6261 8.5307 14.6261 5.48833C14.6261 3.11174 11.7739 2.16075 10.8231 2.16075C10.8231 -0.215839 2.64677 -0.881611 2.26647 5.9637C2.26647 14.5203 2.74184 14.9957 2.26647 15.9465C1.88618 16.7071 1.47419 16.8972 1.31573 16.8972C2.9003 17.3726 6.06943 17.2775 6.06943 13.0943" stroke="#5A5656" stroke-linecap="round" stroke-linejoin="round"/>
</svg>
